<?xml version="1.0" encoding="utf-8" standalone="no"?>
<!DOCTYPE svg PUBLIC "-//W3C//DTD SVG 1.1//EN"
  "http://www.w3.org/Graphics/SVG/1.1/DTD/svg11.dtd">
<svg xmlns:xlink="http://www.w3.org/1999/xlink" width="797.575781pt" height="355.320859pt" viewBox="0 0 797.575781 355.320859" xmlns="http://www.w3.org/2000/svg" version="1.1">
 <metadata>
  <rdf:RDF xmlns:dc="http://purl.org/dc/elements/1.1/" xmlns:cc="http://creativecommons.org/ns#" xmlns:rdf="http://www.w3.org/1999/02/22-rdf-syntax-ns#">
   <cc:Work>
    <dc:type rdf:resource="http://purl.org/dc/dcmitype/StillImage"/>
    <dc:format>image/svg+xml</dc:format>
    <dc:creator>
     <cc:Agent>
      <dc:title>Matplotlib v3.11.1, https://matplotlib.org/</dc:title>
     </cc:Agent>
    </dc:creator>
   </cc:Work>
  </rdf:RDF>
 </metadata>
 <defs>
  <style type="text/css">*{stroke-linejoin: round; stroke-linecap: butt}</style>
 </defs>
 <g id="figure_1">
  <g id="patch_1">
   <path d="M 0 355.320859 
L 797.575781 355.320859 
L 797.575781 0 
L 0 0 
z
" style="fill: #ffffff"/>
  </g>
  <g id="axes_1">
   <g id="patch_2">
    <path d="M 142.667891 330.12 
L 654.907891 330.12 
L 654.907891 50.211094 
L 142.667891 50.211094 
z
" style="fill: #ffffff"/>
   </g>
   <g id="patch_3">
    <path d="M 165.951527 330.12 
L 263.987891 330.12 
L 263.987891 236.817031 
L 165.951527 236.817031 
z
" clip-path="url(#p35ecf8105f)" style="fill: #7c3aed"/>
   </g>
   <g id="patch_4">
    <path d="M 288.496982 330.12 
L 386.533345 330.12 
L 386.533345 143.514062 
L 288.496982 143.514062 
z
" clip-path="url(#p35ecf8105f)" style="fill: #7c3aed"/>
   </g>
   <g id="patch_5">
    <path d="M 411.042436 330.12 
L 509.0788 330.12 
L 509.0788 236.817031 
L 411.042436 236.817031 
z
" clip-path="url(#p35ecf8105f)" style="fill: #7c3aed"/>
   </g>
   <g id="patch_6">
    <path d="M 533.587891 330.12 
L 631.624254 330.12 
L 631.624254 236.817031 
L 533.587891 236.817031 
z
" clip-path="url(#p35ecf8105f)" style="fill: #7c3aed"/>
   </g>
   <g id="matplotlib.axis_1">
    <g id="xtick_1">
     <g id="line2d_1">
      <path d="M 214.969709 330.12 
L 214.969709 50.211094 
" clip-path="url(#p35ecf8105f)" style="fill: none; stroke: #e5e7eb; stroke-width: 0.6; stroke-linecap: square"/>
     </g>
     <g id="line2d_2">
      <defs>
       <path id="m0d9d136b16" d="M 0 0 
L 0 3.5 
" style="stroke: #111827; stroke-width: 0.8"/>
      </defs>
      <g>
       <use xlink:href="#m0d9d136b16" x="214.969709" y="330.12" style="fill: #111827; stroke: #111827; stroke-width: 0.8"/>
      </g>
     </g>
     <g id="text_1">
      <!-- Critical value -->
      <g style="fill: #111827" transform="translate(178.961896 345.478281) scale(0.11 -0.11)">
       <defs>
        <path id="DejaVuSans-26" d="M 4122 4306 
L 4122 3641 
Q 3803 3938 3442 4084 
Q 3081 4231 2675 4231 
Q 1875 4231 1450 3742 
Q 1025 3253 1025 2328 
Q 1025 1406 1450 917 
Q 1875 428 2675 428 
Q 3081 428 3442 575 
Q 3803 722 4122 1019 
L 4122 359 
Q 3791 134 3420 21 
Q 3050 -91 2638 -91 
Q 1578 -91 968 557 
Q 359 1206 359 2328 
Q 359 3453 968 4101 
Q 1578 4750 2638 4750 
Q 3056 4750 3426 4639 
Q 3797 4528 4122 4306 
z
" transform="scale(0.015625)"/>
        <path id="DejaVuSans-55" d="M 2631 2963 
Q 2534 3019 2420 3045 
Q 2306 3072 2169 3072 
Q 1681 3072 1420 2755 
Q 1159 2438 1159 1844 
L 1159 0 
L 581 0 
L 581 3500 
L 1159 3500 
L 1159 2956 
Q 1341 3275 1631 3429 
Q 1922 3584 2338 3584 
Q 2397 3584 2469 3576 
Q 2541 3569 2628 3553 
L 2631 2963 
z
" transform="scale(0.015625)"/>
        <path id="DejaVuSans-4c" d="M 603 3500 
L 1178 3500 
L 1178 0 
L 603 0 
L 603 3500 
z
M 603 4863 
L 1178 4863 
L 1178 4134 
L 603 4134 
L 603 4863 
z
" transform="scale(0.015625)"/>
        <path id="DejaVuSans-57" d="M 1172 4494 
L 1172 3500 
L 2356 3500 
L 2356 3053 
L 1172 3053 
L 1172 1153 
Q 1172 725 1289 603 
Q 1406 481 1766 481 
L 2356 481 
L 2356 0 
L 1766 0 
Q 1100 0 847 248 
Q 594 497 594 1153 
L 594 3053 
L 172 3053 
L 172 3500 
L 594 3500 
L 594 4494 
L 1172 4494 
z
" transform="scale(0.015625)"/>
        <path id="DejaVuSans-46" d="M 3122 3366 
L 3122 2828 
Q 2878 2963 2633 3030 
Q 2388 3097 2138 3097 
Q 1578 3097 1268 2742 
Q 959 2388 959 1747 
Q 959 1106 1268 751 
Q 1578 397 2138 397 
Q 2388 397 2633 464 
Q 2878 531 3122 666 
L 3122 134 
Q 2881 22 2623 -34 
Q 2366 -91 2075 -91 
Q 1284 -91 818 406 
Q 353 903 353 1747 
Q 353 2603 823 3093 
Q 1294 3584 2113 3584 
Q 2378 3584 2631 3529 
Q 2884 3475 3122 3366 
z
" transform="scale(0.015625)"/>
        <path id="DejaVuSans-44" d="M 2194 1759 
Q 1497 1759 1228 1600 
Q 959 1441 959 1056 
Q 959 750 1161 570 
Q 1363 391 1709 391 
Q 2188 391 2477 730 
Q 2766 1069 2766 1631 
L 2766 1759 
L 2194 1759 
z
M 3341 1997 
L 3341 0 
L 2766 0 
L 2766 531 
Q 2569 213 2275 61 
Q 1981 -91 1556 -91 
Q 1019 -91 701 211 
Q 384 513 384 1019 
Q 384 1609 779 1909 
Q 1175 2209 1959 2209 
L 2766 2209 
L 2766 2266 
Q 2766 2663 2505 2880 
Q 2244 3097 1772 3097 
Q 1472 3097 1187 3025 
Q 903 2953 641 2809 
L 641 3341 
Q 956 3463 1253 3523 
Q 1550 3584 1831 3584 
Q 2591 3584 2966 3190 
Q 3341 2797 3341 1997 
z
" transform="scale(0.015625)"/>
        <path id="DejaVuSans-4f" d="M 603 4863 
L 1178 4863 
L 1178 0 
L 603 0 
L 603 4863 
z
" transform="scale(0.015625)"/>
        <path id="DejaVuSans-3" transform="scale(0.015625)"/>
        <path id="DejaVuSans-59" d="M 191 3500 
L 800 3500 
L 1894 563 
L 2988 3500 
L 3597 3500 
L 2284 0 
L 1503 0 
L 191 3500 
z
" transform="scale(0.015625)"/>
        <path id="DejaVuSans-58" d="M 544 1381 
L 544 3500 
L 1119 3500 
L 1119 1403 
Q 1119 906 1312 657 
Q 1506 409 1894 409 
Q 2359 409 2629 706 
Q 2900 1003 2900 1516 
L 2900 3500 
L 3475 3500 
L 3475 0 
L 2900 0 
L 2900 538 
Q 2691 219 2414 64 
Q 2138 -91 1772 -91 
Q 1169 -91 856 284 
Q 544 659 544 1381 
z
M 1991 3584 
L 1991 3584 
z
" transform="scale(0.015625)"/>
        <path id="DejaVuSans-48" d="M 3597 1894 
L 3597 1613 
L 953 1613 
Q 991 1019 1311 708 
Q 1631 397 2203 397 
Q 2534 397 2845 478 
Q 3156 559 3463 722 
L 3463 178 
Q 3153 47 2828 -22 
Q 2503 -91 2169 -91 
Q 1331 -91 842 396 
Q 353 884 353 1716 
Q 353 2575 817 3079 
Q 1281 3584 2069 3584 
Q 2775 3584 3186 3129 
Q 3597 2675 3597 1894 
z
M 3022 2063 
Q 3016 2534 2758 2815 
Q 2500 3097 2075 3097 
Q 1594 3097 1305 2825 
Q 1016 2553 972 2059 
L 3022 2063 
z
" transform="scale(0.015625)"/>
       </defs>
       <use xlink:href="#DejaVuSans-26"/>
       <use xlink:href="#DejaVuSans-55" transform="translate(69.828125 0)"/>
       <use xlink:href="#DejaVuSans-4c" transform="translate(110.9375 0)"/>
       <use xlink:href="#DejaVuSans-57" transform="translate(138.71875 0)"/>
       <use xlink:href="#DejaVuSans-4c" transform="translate(177.921875 0)"/>
       <use xlink:href="#DejaVuSans-46" transform="translate(205.703125 0)"/>
       <use xlink:href="#DejaVuSans-44" transform="translate(260.6875 0)"/>
       <use xlink:href="#DejaVuSans-4f" transform="translate(321.96875 0)"/>
       <use xlink:href="#DejaVuSans-3" transform="translate(349.75 0)"/>
       <use xlink:href="#DejaVuSans-59" transform="translate(381.53125 0)"/>
       <use xlink:href="#DejaVuSans-44" transform="translate(440.71875 0)"/>
       <use xlink:href="#DejaVuSans-4f" transform="translate(502 0)"/>
       <use xlink:href="#DejaVuSans-58" transform="translate(529.78125 0)"/>
       <use xlink:href="#DejaVuSans-48" transform="translate(593.15625 0)"/>
      </g>
     </g>
    </g>
    <g id="xtick_2">
     <g id="line2d_3">
      <path d="M 337.515163 330.12 
L 337.515163 50.211094 
" clip-path="url(#p35ecf8105f)" style="fill: none; stroke: #e5e7eb; stroke-width: 0.6; stroke-linecap: square"/>
     </g>
     <g id="line2d_4">
      <g>
       <use xlink:href="#m0d9d136b16" x="337.515163" y="330.12" style="fill: #111827; stroke: #111827; stroke-width: 0.8"/>
      </g>
     </g>
     <g id="text_2">
      <!-- Uncited claim -->
      <g style="fill: #111827" transform="translate(299.864226 345.478281) scale(0.11 -0.11)">
       <defs>
        <path id="DejaVuSans-38" d="M 556 4666 
L 1191 4666 
L 1191 1831 
Q 1191 1081 1462 751 
Q 1734 422 2344 422 
Q 2950 422 3222 751 
Q 3494 1081 3494 1831 
L 3494 4666 
L 4128 4666 
L 4128 1753 
Q 4128 841 3676 375 
Q 3225 -91 2344 -91 
Q 1459 -91 1007 375 
Q 556 841 556 1753 
L 556 4666 
z
" transform="scale(0.015625)"/>
        <path id="DejaVuSans-51" d="M 3513 2113 
L 3513 0 
L 2938 0 
L 2938 2094 
Q 2938 2591 2744 2837 
Q 2550 3084 2163 3084 
Q 1697 3084 1428 2787 
Q 1159 2491 1159 1978 
L 1159 0 
L 581 0 
L 581 3500 
L 1159 3500 
L 1159 2956 
Q 1366 3272 1645 3428 
Q 1925 3584 2291 3584 
Q 2894 3584 3203 3211 
Q 3513 2838 3513 2113 
z
" transform="scale(0.015625)"/>
        <path id="DejaVuSans-47" d="M 2906 2969 
L 2906 4863 
L 3481 4863 
L 3481 0 
L 2906 0 
L 2906 525 
Q 2725 213 2448 61 
Q 2172 -91 1784 -91 
Q 1150 -91 751 415 
Q 353 922 353 1747 
Q 353 2572 751 3078 
Q 1150 3584 1784 3584 
Q 2172 3584 2448 3432 
Q 2725 3281 2906 2969 
z
M 947 1747 
Q 947 1113 1208 752 
Q 1469 391 1925 391 
Q 2381 391 2643 752 
Q 2906 1113 2906 1747 
Q 2906 2381 2643 2742 
Q 2381 3103 1925 3103 
Q 1469 3103 1208 2742 
Q 947 2381 947 1747 
z
" transform="scale(0.015625)"/>
        <path id="DejaVuSans-50" d="M 3328 2828 
Q 3544 3216 3844 3400 
Q 4144 3584 4550 3584 
Q 5097 3584 5394 3201 
Q 5691 2819 5691 2113 
L 5691 0 
L 5113 0 
L 5113 2094 
Q 5113 2597 4934 2840 
Q 4756 3084 4391 3084 
Q 3944 3084 3684 2787 
Q 3425 2491 3425 1978 
L 3425 0 
L 2847 0 
L 2847 2094 
Q 2847 2600 2669 2842 
Q 2491 3084 2119 3084 
Q 1678 3084 1418 2786 
Q 1159 2488 1159 1978 
L 1159 0 
L 581 0 
L 581 3500 
L 1159 3500 
L 1159 2956 
Q 1356 3278 1631 3431 
Q 1906 3584 2284 3584 
Q 2666 3584 2933 3390 
Q 3200 3197 3328 2828 
z
" transform="scale(0.015625)"/>
       </defs>
       <use xlink:href="#DejaVuSans-38"/>
       <use xlink:href="#DejaVuSans-51" transform="translate(73.1875 0)"/>
       <use xlink:href="#DejaVuSans-46" transform="translate(136.5625 0)"/>
       <use xlink:href="#DejaVuSans-4c" transform="translate(191.546875 0)"/>
       <use xlink:href="#DejaVuSans-57" transform="translate(219.328125 0)"/>
       <use xlink:href="#DejaVuSans-48" transform="translate(258.53125 0)"/>
       <use xlink:href="#DejaVuSans-47" transform="translate(320.0625 0)"/>
       <use xlink:href="#DejaVuSans-3" transform="translate(383.546875 0)"/>
       <use xlink:href="#DejaVuSans-46" transform="translate(415.328125 0)"/>
       <use xlink:href="#DejaVuSans-4f" transform="translate(470.3125 0)"/>
       <use xlink:href="#DejaVuSans-44" transform="translate(498.09375 0)"/>
       <use xlink:href="#DejaVuSans-4c" transform="translate(559.375 0)"/>
       <use xlink:href="#DejaVuSans-50" transform="translate(587.15625 0)"/>
      </g>
     </g>
    </g>
    <g id="xtick_3">
     <g id="line2d_5">
      <path d="M 460.060618 330.12 
L 460.060618 50.211094 
" clip-path="url(#p35ecf8105f)" style="fill: none; stroke: #e5e7eb; stroke-width: 0.6; stroke-linecap: square"/>
     </g>
     <g id="line2d_6">
      <g>
       <use xlink:href="#m0d9d136b16" x="460.060618" y="330.12" style="fill: #111827; stroke: #111827; stroke-width: 0.8"/>
      </g>
     </g>
     <g id="text_3">
      <!-- Diagnosis -->
      <g style="fill: #111827" transform="translate(433.326321 345.478281) scale(0.11 -0.11)">
       <defs>
        <path id="DejaVuSans-27" d="M 1259 4147 
L 1259 519 
L 2022 519 
Q 2988 519 3436 956 
Q 3884 1394 3884 2338 
Q 3884 3275 3436 3711 
Q 2988 4147 2022 4147 
L 1259 4147 
z
M 628 4666 
L 1925 4666 
Q 3281 4666 3915 4102 
Q 4550 3538 4550 2338 
Q 4550 1131 3912 565 
Q 3275 0 1925 0 
L 628 0 
L 628 4666 
z
" transform="scale(0.015625)"/>
        <path id="DejaVuSans-4a" d="M 2906 1791 
Q 2906 2416 2648 2759 
Q 2391 3103 1925 3103 
Q 1463 3103 1205 2759 
Q 947 2416 947 1791 
Q 947 1169 1205 825 
Q 1463 481 1925 481 
Q 2391 481 2648 825 
Q 2906 1169 2906 1791 
z
M 3481 434 
Q 3481 -459 3084 -895 
Q 2688 -1331 1869 -1331 
Q 1566 -1331 1297 -1286 
Q 1028 -1241 775 -1147 
L 775 -588 
Q 1028 -725 1275 -790 
Q 1522 -856 1778 -856 
Q 2344 -856 2625 -561 
Q 2906 -266 2906 331 
L 2906 616 
Q 2728 306 2450 153 
Q 2172 0 1784 0 
Q 1141 0 747 490 
Q 353 981 353 1791 
Q 353 2603 747 3093 
Q 1141 3584 1784 3584 
Q 2172 3584 2450 3431 
Q 2728 3278 2906 2969 
L 2906 3500 
L 3481 3500 
L 3481 434 
z
" transform="scale(0.015625)"/>
        <path id="DejaVuSans-52" d="M 1959 3097 
Q 1497 3097 1228 2736 
Q 959 2375 959 1747 
Q 959 1119 1226 758 
Q 1494 397 1959 397 
Q 2419 397 2687 759 
Q 2956 1122 2956 1747 
Q 2956 2369 2687 2733 
Q 2419 3097 1959 3097 
z
M 1959 3584 
Q 2709 3584 3137 3096 
Q 3566 2609 3566 1747 
Q 3566 888 3137 398 
Q 2709 -91 1959 -91 
Q 1206 -91 779 398 
Q 353 888 353 1747 
Q 353 2609 779 3096 
Q 1206 3584 1959 3584 
z
" transform="scale(0.015625)"/>
        <path id="DejaVuSans-56" d="M 2834 3397 
L 2834 2853 
Q 2591 2978 2328 3040 
Q 2066 3103 1784 3103 
Q 1356 3103 1142 2972 
Q 928 2841 928 2578 
Q 928 2378 1081 2264 
Q 1234 2150 1697 2047 
L 1894 2003 
Q 2506 1872 2764 1633 
Q 3022 1394 3022 966 
Q 3022 478 2636 193 
Q 2250 -91 1575 -91 
Q 1294 -91 989 -36 
Q 684 19 347 128 
L 347 722 
Q 666 556 975 473 
Q 1284 391 1588 391 
Q 1994 391 2212 530 
Q 2431 669 2431 922 
Q 2431 1156 2273 1281 
Q 2116 1406 1581 1522 
L 1381 1569 
Q 847 1681 609 1914 
Q 372 2147 372 2553 
Q 372 3047 722 3315 
Q 1072 3584 1716 3584 
Q 2034 3584 2315 3537 
Q 2597 3491 2834 3397 
z
" transform="scale(0.015625)"/>
       </defs>
       <use xlink:href="#DejaVuSans-27"/>
       <use xlink:href="#DejaVuSans-4c" transform="translate(77 0)"/>
       <use xlink:href="#DejaVuSans-44" transform="translate(104.78125 0)"/>
       <use xlink:href="#DejaVuSans-4a" transform="translate(166.0625 0)"/>
       <use xlink:href="#DejaVuSans-51" transform="translate(229.546875 0)"/>
       <use xlink:href="#DejaVuSans-52" transform="translate(292.921875 0)"/>
       <use xlink:href="#DejaVuSans-56" transform="translate(354.109375 0)"/>
       <use xlink:href="#DejaVuSans-4c" transform="translate(406.203125 0)"/>
       <use xlink:href="#DejaVuSans-56" transform="translate(433.984375 0)"/>
      </g>
     </g>
    </g>
    <g id="xtick_4">
     <g id="line2d_7">
      <path d="M 582.606072 330.12 
L 582.606072 50.211094 
" clip-path="url(#p35ecf8105f)" style="fill: none; stroke: #e5e7eb; stroke-width: 0.6; stroke-linecap: square"/>
     </g>
     <g id="line2d_8">
      <g>
       <use xlink:href="#m0d9d136b16" x="582.606072" y="330.12" style="fill: #111827; stroke: #111827; stroke-width: 0.8"/>
      </g>
     </g>
     <g id="text_4">
      <!-- Medication change -->
      <g style="fill: #111827" transform="translate(530.537401 345.478281) scale(0.11 -0.11)">
       <defs>
        <path id="DejaVuSans-30" d="M 628 4666 
L 1569 4666 
L 2759 1491 
L 3956 4666 
L 4897 4666 
L 4897 0 
L 4281 0 
L 4281 4097 
L 3078 897 
L 2444 897 
L 1241 4097 
L 1241 0 
L 628 0 
L 628 4666 
z
" transform="scale(0.015625)"/>
        <path id="DejaVuSans-4b" d="M 3513 2113 
L 3513 0 
L 2938 0 
L 2938 2094 
Q 2938 2591 2744 2837 
Q 2550 3084 2163 3084 
Q 1697 3084 1428 2787 
Q 1159 2491 1159 1978 
L 1159 0 
L 581 0 
L 581 4863 
L 1159 4863 
L 1159 2956 
Q 1366 3272 1645 3428 
Q 1925 3584 2291 3584 
Q 2894 3584 3203 3211 
Q 3513 2838 3513 2113 
z
" transform="scale(0.015625)"/>
       </defs>
       <use xlink:href="#DejaVuSans-30"/>
       <use xlink:href="#DejaVuSans-48" transform="translate(86.28125 0)"/>
       <use xlink:href="#DejaVuSans-47" transform="translate(147.8125 0)"/>
       <use xlink:href="#DejaVuSans-4c" transform="translate(211.296875 0)"/>
       <use xlink:href="#DejaVuSans-46" transform="translate(239.078125 0)"/>
       <use xlink:href="#DejaVuSans-44" transform="translate(294.0625 0)"/>
       <use xlink:href="#DejaVuSans-57" transform="translate(355.34375 0)"/>
       <use xlink:href="#DejaVuSans-4c" transform="translate(394.546875 0)"/>
       <use xlink:href="#DejaVuSans-52" transform="translate(422.328125 0)"/>
       <use xlink:href="#DejaVuSans-51" transform="translate(483.515625 0)"/>
       <use xlink:href="#DejaVuSans-3" transform="translate(546.890625 0)"/>
       <use xlink:href="#DejaVuSans-46" transform="translate(578.671875 0)"/>
       <use xlink:href="#DejaVuSans-4b" transform="translate(633.65625 0)"/>
       <use xlink:href="#DejaVuSans-44" transform="translate(697.03125 0)"/>
       <use xlink:href="#DejaVuSans-51" transform="translate(758.3125 0)"/>
       <use xlink:href="#DejaVuSans-4a" transform="translate(821.6875 0)"/>
       <use xlink:href="#DejaVuSans-48" transform="translate(885.171875 0)"/>
      </g>
     </g>
    </g>
   </g>
   <g id="matplotlib.axis_2">
    <g id="ytick_1">
     <g id="line2d_9">
      <path d="M 142.667891 330.12 
L 654.907891 330.12 
" clip-path="url(#p35ecf8105f)" style="fill: none; stroke: #e5e7eb; stroke-width: 0.6; stroke-linecap: square"/>
     </g>
     <g id="line2d_10">
      <defs>
       <path id="mefc2f16a45" d="M 0 0 
L -3.5 0 
" style="stroke: #111827; stroke-width: 0.8"/>
      </defs>
      <g>
       <use xlink:href="#mefc2f16a45" x="142.667891" y="330.12" style="fill: #111827; stroke: #111827; stroke-width: 0.8"/>
      </g>
     </g>
     <g id="text_5">
      <!-- 0.0 -->
      <g style="fill: #111827" transform="translate(118.174453 334.298711) scale(0.11 -0.11)">
       <defs>
        <path id="DejaVuSans-13" d="M 2034 4250 
Q 1547 4250 1301 3770 
Q 1056 3291 1056 2328 
Q 1056 1369 1301 889 
Q 1547 409 2034 409 
Q 2525 409 2770 889 
Q 3016 1369 3016 2328 
Q 3016 3291 2770 3770 
Q 2525 4250 2034 4250 
z
M 2034 4750 
Q 2819 4750 3233 4129 
Q 3647 3509 3647 2328 
Q 3647 1150 3233 529 
Q 2819 -91 2034 -91 
Q 1250 -91 836 529 
Q 422 1150 422 2328 
Q 422 3509 836 4129 
Q 1250 4750 2034 4750 
z
" transform="scale(0.015625)"/>
        <path id="DejaVuSans-11" d="M 684 794 
L 1344 794 
L 1344 0 
L 684 0 
L 684 794 
z
" transform="scale(0.015625)"/>
       </defs>
       <use xlink:href="#DejaVuSans-13"/>
       <use xlink:href="#DejaVuSans-11" transform="translate(63.625 0)"/>
       <use xlink:href="#DejaVuSans-13" transform="translate(95.40625 0)"/>
      </g>
     </g>
    </g>
    <g id="ytick_2">
     <g id="line2d_11">
      <path d="M 142.667891 283.468516 
L 654.907891 283.468516 
" clip-path="url(#p35ecf8105f)" style="fill: none; stroke: #e5e7eb; stroke-width: 0.6; stroke-linecap: square"/>
     </g>
     <g id="line2d_12">
      <g>
       <use xlink:href="#mefc2f16a45" x="142.667891" y="283.468516" style="fill: #111827; stroke: #111827; stroke-width: 0.8"/>
      </g>
     </g>
     <g id="text_6">
      <!-- 0.5 -->
      <g style="fill: #111827" transform="translate(118.174453 287.647227) scale(0.11 -0.11)">
       <defs>
        <path id="DejaVuSans-18" d="M 691 4666 
L 3169 4666 
L 3169 4134 
L 1269 4134 
L 1269 2991 
Q 1406 3038 1543 3061 
Q 1681 3084 1819 3084 
Q 2600 3084 3056 2656 
Q 3513 2228 3513 1497 
Q 3513 744 3044 326 
Q 2575 -91 1722 -91 
Q 1428 -91 1123 -41 
Q 819 9 494 109 
L 494 744 
Q 775 591 1075 516 
Q 1375 441 1709 441 
Q 2250 441 2565 725 
Q 2881 1009 2881 1497 
Q 2881 1984 2565 2268 
Q 2250 2553 1709 2553 
Q 1456 2553 1204 2497 
Q 953 2441 691 2322 
L 691 4666 
z
" transform="scale(0.015625)"/>
       </defs>
       <use xlink:href="#DejaVuSans-13"/>
       <use xlink:href="#DejaVuSans-11" transform="translate(63.625 0)"/>
       <use xlink:href="#DejaVuSans-18" transform="translate(95.40625 0)"/>
      </g>
     </g>
    </g>
    <g id="ytick_3">
     <g id="line2d_13">
      <path d="M 142.667891 236.817031 
L 654.907891 236.817031 
" clip-path="url(#p35ecf8105f)" style="fill: none; stroke: #e5e7eb; stroke-width: 0.6; stroke-linecap: square"/>
     </g>
     <g id="line2d_14">
      <g>
       <use xlink:href="#mefc2f16a45" x="142.667891" y="236.817031" style="fill: #111827; stroke: #111827; stroke-width: 0.8"/>
      </g>
     </g>
     <g id="text_7">
      <!-- 1.0 -->
      <g style="fill: #111827" transform="translate(118.174453 240.995742) scale(0.11 -0.11)">
       <defs>
        <path id="DejaVuSans-14" d="M 794 531 
L 1825 531 
L 1825 4091 
L 703 3866 
L 703 4441 
L 1819 4666 
L 2450 4666 
L 2450 531 
L 3481 531 
L 3481 0 
L 794 0 
L 794 531 
z
" transform="scale(0.015625)"/>
       </defs>
       <use xlink:href="#DejaVuSans-14"/>
       <use xlink:href="#DejaVuSans-11" transform="translate(63.625 0)"/>
       <use xlink:href="#DejaVuSans-13" transform="translate(95.40625 0)"/>
      </g>
     </g>
    </g>
    <g id="ytick_4">
     <g id="line2d_15">
      <path d="M 142.667891 190.165547 
L 654.907891 190.165547 
" clip-path="url(#p35ecf8105f)" style="fill: none; stroke: #e5e7eb; stroke-width: 0.6; stroke-linecap: square"/>
     </g>
     <g id="line2d_16">
      <g>
       <use xlink:href="#mefc2f16a45" x="142.667891" y="190.165547" style="fill: #111827; stroke: #111827; stroke-width: 0.8"/>
      </g>
     </g>
     <g id="text_8">
      <!-- 1.5 -->
      <g style="fill: #111827" transform="translate(118.174453 194.344258) scale(0.11 -0.11)">
       <use xlink:href="#DejaVuSans-14"/>
       <use xlink:href="#DejaVuSans-11" transform="translate(63.625 0)"/>
       <use xlink:href="#DejaVuSans-18" transform="translate(95.40625 0)"/>
      </g>
     </g>
    </g>
    <g id="ytick_5">
     <g id="line2d_17">
      <path d="M 142.667891 143.514062 
L 654.907891 143.514062 
" clip-path="url(#p35ecf8105f)" style="fill: none; stroke: #e5e7eb; stroke-width: 0.6; stroke-linecap: square"/>
     </g>
     <g id="line2d_18">
      <g>
       <use xlink:href="#mefc2f16a45" x="142.667891" y="143.514062" style="fill: #111827; stroke: #111827; stroke-width: 0.8"/>
      </g>
     </g>
     <g id="text_9">
      <!-- 2.0 -->
      <g style="fill: #111827" transform="translate(118.174453 147.692773) scale(0.11 -0.11)">
       <defs>
        <path id="DejaVuSans-15" d="M 1228 531 
L 3431 531 
L 3431 0 
L 469 0 
L 469 531 
Q 828 903 1448 1529 
Q 2069 2156 2228 2338 
Q 2531 2678 2651 2914 
Q 2772 3150 2772 3378 
Q 2772 3750 2511 3984 
Q 2250 4219 1831 4219 
Q 1534 4219 1204 4116 
Q 875 4013 500 3803 
L 500 4441 
Q 881 4594 1212 4672 
Q 1544 4750 1819 4750 
Q 2544 4750 2975 4387 
Q 3406 4025 3406 3419 
Q 3406 3131 3298 2873 
Q 3191 2616 2906 2266 
Q 2828 2175 2409 1742 
Q 1991 1309 1228 531 
z
" transform="scale(0.015625)"/>
       </defs>
       <use xlink:href="#DejaVuSans-15"/>
       <use xlink:href="#DejaVuSans-11" transform="translate(63.625 0)"/>
       <use xlink:href="#DejaVuSans-13" transform="translate(95.40625 0)"/>
      </g>
     </g>
    </g>
    <g id="ytick_6">
     <g id="line2d_19">
      <path d="M 142.667891 96.862578 
L 654.907891 96.862578 
" clip-path="url(#p35ecf8105f)" style="fill: none; stroke: #e5e7eb; stroke-width: 0.6; stroke-linecap: square"/>
     </g>
     <g id="line2d_20">
      <g>
       <use xlink:href="#mefc2f16a45" x="142.667891" y="96.862578" style="fill: #111827; stroke: #111827; stroke-width: 0.8"/>
      </g>
     </g>
     <g id="text_10">
      <!-- 2.5 -->
      <g style="fill: #111827" transform="translate(118.174453 101.041289) scale(0.11 -0.11)">
       <use xlink:href="#DejaVuSans-15"/>
       <use xlink:href="#DejaVuSans-11" transform="translate(63.625 0)"/>
       <use xlink:href="#DejaVuSans-18" transform="translate(95.40625 0)"/>
      </g>
     </g>
    </g>
    <g id="ytick_7">
     <g id="line2d_21">
      <path d="M 142.667891 50.211094 
L 654.907891 50.211094 
" clip-path="url(#p35ecf8105f)" style="fill: none; stroke: #e5e7eb; stroke-width: 0.6; stroke-linecap: square"/>
     </g>
     <g id="line2d_22">
      <g>
       <use xlink:href="#mefc2f16a45" x="142.667891" y="50.211094" style="fill: #111827; stroke: #111827; stroke-width: 0.8"/>
      </g>
     </g>
     <g id="text_11">
      <!-- 3.0 -->
      <g style="fill: #111827" transform="translate(118.174453 54.389805) scale(0.11 -0.11)">
       <defs>
        <path id="DejaVuSans-16" d="M 2597 2516 
Q 3050 2419 3304 2112 
Q 3559 1806 3559 1356 
Q 3559 666 3084 287 
Q 2609 -91 1734 -91 
Q 1441 -91 1130 -33 
Q 819 25 488 141 
L 488 750 
Q 750 597 1062 519 
Q 1375 441 1716 441 
Q 2309 441 2620 675 
Q 2931 909 2931 1356 
Q 2931 1769 2642 2001 
Q 2353 2234 1838 2234 
L 1294 2234 
L 1294 2753 
L 1863 2753 
Q 2328 2753 2575 2939 
Q 2822 3125 2822 3475 
Q 2822 3834 2567 4026 
Q 2313 4219 1838 4219 
Q 1578 4219 1281 4162 
Q 984 4106 628 3988 
L 628 4550 
Q 988 4650 1302 4700 
Q 1616 4750 1894 4750 
Q 2613 4750 3031 4423 
Q 3450 4097 3450 3541 
Q 3450 3153 3228 2886 
Q 3006 2619 2597 2516 
z
" transform="scale(0.015625)"/>
       </defs>
       <use xlink:href="#DejaVuSans-16"/>
       <use xlink:href="#DejaVuSans-11" transform="translate(63.625 0)"/>
       <use xlink:href="#DejaVuSans-13" transform="translate(95.40625 0)"/>
      </g>
     </g>
    </g>
    <g id="text_12">
     <!-- Overrides -->
     <g style="fill: #111827" transform="translate(111.531875 216.829375) rotate(-90) scale(0.11 -0.11)">
      <defs>
       <path id="DejaVuSans-32" d="M 2522 4238 
Q 1834 4238 1429 3725 
Q 1025 3213 1025 2328 
Q 1025 1447 1429 934 
Q 1834 422 2522 422 
Q 3209 422 3611 934 
Q 4013 1447 4013 2328 
Q 4013 3213 3611 3725 
Q 3209 4238 2522 4238 
z
M 2522 4750 
Q 3503 4750 4090 4092 
Q 4678 3434 4678 2328 
Q 4678 1225 4090 567 
Q 3503 -91 2522 -91 
Q 1538 -91 948 565 
Q 359 1222 359 2328 
Q 359 3434 948 4092 
Q 1538 4750 2522 4750 
z
" transform="scale(0.015625)"/>
      </defs>
      <use xlink:href="#DejaVuSans-32"/>
      <use xlink:href="#DejaVuSans-59" transform="translate(78.71875 0)"/>
      <use xlink:href="#DejaVuSans-48" transform="translate(137.90625 0)"/>
      <use xlink:href="#DejaVuSans-55" transform="translate(199.4375 0)"/>
      <use xlink:href="#DejaVuSans-55" transform="translate(238.796875 0)"/>
      <use xlink:href="#DejaVuSans-4c" transform="translate(279.90625 0)"/>
      <use xlink:href="#DejaVuSans-47" transform="translate(307.6875 0)"/>
      <use xlink:href="#DejaVuSans-48" transform="translate(371.171875 0)"/>
      <use xlink:href="#DejaVuSans-56" transform="translate(432.703125 0)"/>
     </g>
    </g>
   </g>
   <g id="patch_7">
    <path d="M 142.667891 330.12 
L 142.667891 50.211094 
" style="fill: none; stroke: #111827; stroke-width: 0.8; stroke-linejoin: miter; stroke-linecap: square"/>
   </g>
   <g id="patch_8">
    <path d="M 142.667891 330.12 
L 654.907891 330.12 
" style="fill: none; stroke: #111827; stroke-width: 0.8; stroke-linejoin: miter; stroke-linecap: square"/>
   </g>
   <g id="text_13">
    <!--  1 -->
    <g transform="translate(210.199396 234.414687) scale(0.1 -0.1)">
     <use xlink:href="#DejaVuSans-3"/>
     <use xlink:href="#DejaVuSans-14" transform="translate(31.78125 0)"/>
    </g>
   </g>
   <g id="text_14">
    <!--  2 -->
    <g transform="translate(332.744851 141.111719) scale(0.1 -0.1)">
     <use xlink:href="#DejaVuSans-3"/>
     <use xlink:href="#DejaVuSans-15" transform="translate(31.78125 0)"/>
    </g>
   </g>
   <g id="text_15">
    <!--  1 -->
    <g transform="translate(455.290305 234.414687) scale(0.1 -0.1)">
     <use xlink:href="#DejaVuSans-3"/>
     <use xlink:href="#DejaVuSans-14" transform="translate(31.78125 0)"/>
    </g>
   </g>
   <g id="text_16">
    <!--  1 -->
    <g transform="translate(577.83576 234.414687) scale(0.1 -0.1)">
     <use xlink:href="#DejaVuSans-3"/>
     <use xlink:href="#DejaVuSans-14" transform="translate(31.78125 0)"/>
    </g>
   </g>
   <g id="text_17">
    <!-- Post-flight overrides by trigger — mechanism demonstration (critical bar: real, n=99 population results; others: committed battery; real rates in Phase 8) -->
    <g style="fill: #111827" transform="translate(7.2 44.211094) scale(0.09 -0.09)">
     <defs>
      <path id="DejaVuSans-Bold-33" d="M 588 4666 
L 2584 4666 
Q 3475 4666 3951 4270 
Q 4428 3875 4428 3144 
Q 4428 2409 3951 2014 
Q 3475 1619 2584 1619 
L 1791 1619 
L 1791 0 
L 588 0 
L 588 4666 
z
M 1791 3794 
L 1791 2491 
L 2456 2491 
Q 2806 2491 2997 2661 
Q 3188 2831 3188 3144 
Q 3188 3456 2997 3625 
Q 2806 3794 2456 3794 
L 1791 3794 
z
" transform="scale(0.015625)"/>
      <path id="DejaVuSans-Bold-52" d="M 2203 2784 
Q 1831 2784 1636 2517 
Q 1441 2250 1441 1747 
Q 1441 1244 1636 976 
Q 1831 709 2203 709 
Q 2569 709 2762 976 
Q 2956 1244 2956 1747 
Q 2956 2250 2762 2517 
Q 2569 2784 2203 2784 
z
M 2203 3584 
Q 3106 3584 3614 3096 
Q 4122 2609 4122 1747 
Q 4122 884 3614 396 
Q 3106 -91 2203 -91 
Q 1297 -91 786 396 
Q 275 884 275 1747 
Q 275 2609 786 3096 
Q 1297 3584 2203 3584 
z
" transform="scale(0.015625)"/>
      <path id="DejaVuSans-Bold-56" d="M 3272 3391 
L 3272 2541 
Q 2913 2691 2578 2766 
Q 2244 2841 1947 2841 
Q 1628 2841 1473 2761 
Q 1319 2681 1319 2516 
Q 1319 2381 1436 2309 
Q 1553 2238 1856 2203 
L 2053 2175 
Q 2913 2066 3209 1816 
Q 3506 1566 3506 1031 
Q 3506 472 3093 190 
Q 2681 -91 1863 -91 
Q 1516 -91 1145 -36 
Q 775 19 384 128 
L 384 978 
Q 719 816 1070 734 
Q 1422 653 1784 653 
Q 2113 653 2278 743 
Q 2444 834 2444 1013 
Q 2444 1163 2330 1236 
Q 2216 1309 1875 1350 
L 1678 1375 
Q 931 1469 631 1722 
Q 331 1975 331 2491 
Q 331 3047 712 3315 
Q 1094 3584 1881 3584 
Q 2191 3584 2531 3537 
Q 2872 3491 3272 3391 
z
" transform="scale(0.015625)"/>
      <path id="DejaVuSans-Bold-57" d="M 1759 4494 
L 1759 3500 
L 2913 3500 
L 2913 2700 
L 1759 2700 
L 1759 1216 
Q 1759 972 1856 886 
Q 1953 800 2241 800 
L 2816 800 
L 2816 0 
L 1856 0 
Q 1194 0 917 276 
Q 641 553 641 1216 
L 641 2700 
L 84 2700 
L 84 3500 
L 641 3500 
L 641 4494 
L 1759 4494 
z
" transform="scale(0.015625)"/>
      <path id="DejaVuSans-Bold-10" d="M 347 2297 
L 2309 2297 
L 2309 1388 
L 347 1388 
L 347 2297 
z
" transform="scale(0.015625)"/>
      <path id="DejaVuSans-Bold-13ac" d="M 1984 4863 
L 4206 4863 
L 4206 0 
L 3078 0 
L 3078 4128 
L 2222 4128 
Q 1984 4128 1890 4042 
Q 1797 3956 1797 3744 
L 1797 3500 
L 2675 3500 
L 2675 2700 
L 1797 2700 
L 1797 0 
L 678 0 
L 678 2700 
L 122 2700 
L 122 3500 
L 678 3500 
L 678 3744 
Q 678 4316 997 4589 
Q 1316 4863 1984 4863 
z
" transform="scale(0.015625)"/>
      <path id="DejaVuSans-Bold-4c" d="M 538 3500 
L 1656 3500 
L 1656 0 
L 538 0 
L 538 3500 
z
M 538 4863 
L 1656 4863 
L 1656 3950 
L 538 3950 
L 538 4863 
z
" transform="scale(0.015625)"/>
      <path id="DejaVuSans-Bold-4a" d="M 2919 594 
Q 2688 288 2409 144 
Q 2131 0 1766 0 
Q 1125 0 706 504 
Q 288 1009 288 1791 
Q 288 2575 706 3076 
Q 1125 3578 1766 3578 
Q 2131 3578 2409 3434 
Q 2688 3291 2919 2981 
L 2919 3500 
L 4044 3500 
L 4044 353 
Q 4044 -491 3511 -936 
Q 2978 -1381 1966 -1381 
Q 1638 -1381 1331 -1331 
Q 1025 -1281 716 -1178 
L 716 -306 
Q 1009 -475 1290 -558 
Q 1572 -641 1856 -641 
Q 2406 -641 2662 -400 
Q 2919 -159 2919 353 
L 2919 594 
z
M 2181 2772 
Q 1834 2772 1640 2515 
Q 1447 2259 1447 1791 
Q 1447 1309 1634 1061 
Q 1822 813 2181 813 
Q 2531 813 2725 1069 
Q 2919 1325 2919 1791 
Q 2919 2259 2725 2515 
Q 2531 2772 2181 2772 
z
" transform="scale(0.015625)"/>
      <path id="DejaVuSans-Bold-4b" d="M 4056 2131 
L 4056 0 
L 2931 0 
L 2931 347 
L 2931 1625 
Q 2931 2084 2911 2256 
Q 2891 2428 2841 2509 
Q 2775 2619 2662 2680 
Q 2550 2741 2406 2741 
Q 2056 2741 1856 2470 
Q 1656 2200 1656 1722 
L 1656 0 
L 538 0 
L 538 4863 
L 1656 4863 
L 1656 2988 
Q 1909 3294 2193 3439 
Q 2478 3584 2822 3584 
Q 3428 3584 3742 3212 
Q 4056 2841 4056 2131 
z
" transform="scale(0.015625)"/>
      <path id="DejaVuSans-Bold-3" transform="scale(0.015625)"/>
      <path id="DejaVuSans-Bold-59" d="M 97 3500 
L 1216 3500 
L 2088 1081 
L 2956 3500 
L 4078 3500 
L 2700 0 
L 1472 0 
L 97 3500 
z
" transform="scale(0.015625)"/>
      <path id="DejaVuSans-Bold-48" d="M 4031 1759 
L 4031 1441 
L 1416 1441 
Q 1456 1047 1700 850 
Q 1944 653 2381 653 
Q 2734 653 3104 758 
Q 3475 863 3866 1075 
L 3866 213 
Q 3469 63 3072 -14 
Q 2675 -91 2278 -91 
Q 1328 -91 801 392 
Q 275 875 275 1747 
Q 275 2603 792 3093 
Q 1309 3584 2216 3584 
Q 3041 3584 3536 3087 
Q 4031 2591 4031 1759 
z
M 2881 2131 
Q 2881 2450 2695 2645 
Q 2509 2841 2209 2841 
Q 1884 2841 1681 2658 
Q 1478 2475 1428 2131 
L 2881 2131 
z
" transform="scale(0.015625)"/>
      <path id="DejaVuSans-Bold-55" d="M 3138 2547 
Q 2991 2616 2845 2648 
Q 2700 2681 2553 2681 
Q 2122 2681 1889 2404 
Q 1656 2128 1656 1613 
L 1656 0 
L 538 0 
L 538 3500 
L 1656 3500 
L 1656 2925 
Q 1872 3269 2151 3426 
Q 2431 3584 2822 3584 
Q 2878 3584 2943 3579 
Q 3009 3575 3134 3559 
L 3138 2547 
z
" transform="scale(0.015625)"/>
      <path id="DejaVuSans-Bold-47" d="M 2919 2988 
L 2919 4863 
L 4044 4863 
L 4044 0 
L 2919 0 
L 2919 506 
Q 2688 197 2409 53 
Q 2131 -91 1766 -91 
Q 1119 -91 703 423 
Q 288 938 288 1747 
Q 288 2556 703 3070 
Q 1119 3584 1766 3584 
Q 2128 3584 2408 3439 
Q 2688 3294 2919 2988 
z
M 2181 722 
Q 2541 722 2730 984 
Q 2919 1247 2919 1747 
Q 2919 2247 2730 2509 
Q 2541 2772 2181 2772 
Q 1825 2772 1636 2509 
Q 1447 2247 1447 1747 
Q 1447 1247 1636 984 
Q 1825 722 2181 722 
z
" transform="scale(0.015625)"/>
      <path id="DejaVuSans-Bold-45" d="M 2400 722 
Q 2759 722 2948 984 
Q 3138 1247 3138 1747 
Q 3138 2247 2948 2509 
Q 2759 2772 2400 2772 
Q 2041 2772 1848 2508 
Q 1656 2244 1656 1747 
Q 1656 1250 1848 986 
Q 2041 722 2400 722 
z
M 1656 2988 
Q 1888 3294 2169 3439 
Q 2450 3584 2816 3584 
Q 3463 3584 3878 3070 
Q 4294 2556 4294 1747 
Q 4294 938 3878 423 
Q 3463 -91 2816 -91 
Q 2450 -91 2169 54 
Q 1888 200 1656 506 
L 1656 0 
L 538 0 
L 538 4863 
L 1656 4863 
L 1656 2988 
z
" transform="scale(0.015625)"/>
      <path id="DejaVuSans-Bold-5c" d="M 78 3500 
L 1197 3500 
L 2138 1125 
L 2938 3500 
L 4056 3500 
L 2584 -331 
Q 2363 -916 2067 -1148 
Q 1772 -1381 1288 -1381 
L 641 -1381 
L 641 -647 
L 991 -647 
Q 1275 -647 1404 -556 
Q 1534 -466 1606 -231 
L 1638 -134 
L 78 3500 
z
" transform="scale(0.015625)"/>
      <path id="DejaVuSans-Bold-af6" d="M 344 2156 
L 6056 2156 
L 6056 1350 
L 344 1350 
L 344 2156 
z
" transform="scale(0.015625)"/>
      <path id="DejaVuSans-Bold-50" d="M 3781 2919 
Q 3994 3244 4286 3414 
Q 4578 3584 4928 3584 
Q 5531 3584 5847 3212 
Q 6163 2841 6163 2131 
L 6163 0 
L 5038 0 
L 5038 1825 
Q 5041 1866 5042 1909 
Q 5044 1953 5044 2034 
Q 5044 2406 4934 2573 
Q 4825 2741 4581 2741 
Q 4263 2741 4089 2478 
Q 3916 2216 3909 1719 
L 3909 0 
L 2784 0 
L 2784 1825 
Q 2784 2406 2684 2573 
Q 2584 2741 2328 2741 
Q 2006 2741 1831 2477 
Q 1656 2213 1656 1722 
L 1656 0 
L 531 0 
L 531 3500 
L 1656 3500 
L 1656 2988 
Q 1863 3284 2130 3434 
Q 2397 3584 2719 3584 
Q 3081 3584 3359 3409 
Q 3638 3234 3781 2919 
z
" transform="scale(0.015625)"/>
      <path id="DejaVuSans-Bold-46" d="M 3366 3391 
L 3366 2478 
Q 3138 2634 2908 2709 
Q 2678 2784 2431 2784 
Q 1963 2784 1702 2511 
Q 1441 2238 1441 1747 
Q 1441 1256 1702 982 
Q 1963 709 2431 709 
Q 2694 709 2930 787 
Q 3166 866 3366 1019 
L 3366 103 
Q 3103 6 2833 -42 
Q 2563 -91 2291 -91 
Q 1344 -91 809 395 
Q 275 881 275 1747 
Q 275 2613 809 3098 
Q 1344 3584 2291 3584 
Q 2566 3584 2833 3536 
Q 3100 3488 3366 3391 
z
" transform="scale(0.015625)"/>
      <path id="DejaVuSans-Bold-44" d="M 2106 1575 
Q 1756 1575 1579 1456 
Q 1403 1338 1403 1106 
Q 1403 894 1545 773 
Q 1688 653 1941 653 
Q 2256 653 2472 879 
Q 2688 1106 2688 1447 
L 2688 1575 
L 2106 1575 
z
M 3816 1997 
L 3816 0 
L 2688 0 
L 2688 519 
Q 2463 200 2181 54 
Q 1900 -91 1497 -91 
Q 953 -91 614 226 
Q 275 544 275 1050 
Q 275 1666 698 1953 
Q 1122 2241 2028 2241 
L 2688 2241 
L 2688 2328 
Q 2688 2594 2478 2717 
Q 2269 2841 1825 2841 
Q 1466 2841 1156 2769 
Q 847 2697 581 2553 
L 581 3406 
Q 941 3494 1303 3539 
Q 1666 3584 2028 3584 
Q 2975 3584 3395 3211 
Q 3816 2838 3816 1997 
z
" transform="scale(0.015625)"/>
      <path id="DejaVuSans-Bold-51" d="M 4056 2131 
L 4056 0 
L 2931 0 
L 2931 347 
L 2931 1631 
Q 2931 2084 2911 2256 
Q 2891 2428 2841 2509 
Q 2775 2619 2662 2680 
Q 2550 2741 2406 2741 
Q 2056 2741 1856 2470 
Q 1656 2200 1656 1722 
L 1656 0 
L 538 0 
L 538 3500 
L 1656 3500 
L 1656 2988 
Q 1909 3294 2193 3439 
Q 2478 3584 2822 3584 
Q 3428 3584 3742 3212 
Q 4056 2841 4056 2131 
z
" transform="scale(0.015625)"/>
      <path id="DejaVuSans-Bold-b" d="M 2413 -844 
L 1484 -844 
Q 1006 -72 778 623 
Q 550 1319 550 2003 
Q 550 2688 779 3389 
Q 1009 4091 1484 4856 
L 2413 4856 
Q 2013 4116 1813 3408 
Q 1613 2700 1613 2009 
Q 1613 1319 1811 609 
Q 2009 -100 2413 -844 
z
" transform="scale(0.015625)"/>
      <path id="DejaVuSans-Bold-4f" d="M 538 4863 
L 1656 4863 
L 1656 0 
L 538 0 
L 538 4863 
z
" transform="scale(0.015625)"/>
      <path id="DejaVuSans-Bold-1d" d="M 716 3500 
L 1844 3500 
L 1844 2291 
L 716 2291 
L 716 3500 
z
M 716 1209 
L 1844 1209 
L 1844 0 
L 716 0 
L 716 1209 
z
" transform="scale(0.015625)"/>
      <path id="DejaVuSans-Bold-f" d="M 653 1209 
L 1778 1209 
L 1778 256 
L 1006 -909 
L 341 -909 
L 653 256 
L 653 1209 
z
" transform="scale(0.015625)"/>
      <path id="DejaVuSans-Bold-20" d="M 678 3084 
L 4684 3084 
L 4684 2350 
L 678 2350 
L 678 3084 
z
M 678 1663 
L 4684 1663 
L 4684 922 
L 678 922 
L 678 1663 
z
" transform="scale(0.015625)"/>
      <path id="DejaVuSans-Bold-1c" d="M 641 103 
L 641 966 
Q 928 831 1190 764 
Q 1453 697 1709 697 
Q 2247 697 2547 995 
Q 2847 1294 2900 1881 
Q 2688 1725 2447 1647 
Q 2206 1569 1925 1569 
Q 1209 1569 770 1986 
Q 331 2403 331 3084 
Q 331 3838 820 4291 
Q 1309 4744 2131 4744 
Q 3044 4744 3544 4128 
Q 4044 3513 4044 2388 
Q 4044 1231 3459 570 
Q 2875 -91 1856 -91 
Q 1528 -91 1228 -42 
Q 928 6 641 103 
z
M 2125 2350 
Q 2441 2350 2600 2554 
Q 2759 2759 2759 3169 
Q 2759 3575 2600 3781 
Q 2441 3988 2125 3988 
Q 1809 3988 1650 3781 
Q 1491 3575 1491 3169 
Q 1491 2759 1650 2554 
Q 1809 2350 2125 2350 
z
" transform="scale(0.015625)"/>
      <path id="DejaVuSans-Bold-53" d="M 1656 506 
L 1656 -1331 
L 538 -1331 
L 538 3500 
L 1656 3500 
L 1656 2988 
Q 1888 3294 2169 3439 
Q 2450 3584 2816 3584 
Q 3463 3584 3878 3070 
Q 4294 2556 4294 1747 
Q 4294 938 3878 423 
Q 3463 -91 2816 -91 
Q 2450 -91 2169 54 
Q 1888 200 1656 506 
z
M 2400 2772 
Q 2041 2772 1848 2508 
Q 1656 2244 1656 1747 
Q 1656 1250 1848 986 
Q 2041 722 2400 722 
Q 2759 722 2948 984 
Q 3138 1247 3138 1747 
Q 3138 2247 2948 2509 
Q 2759 2772 2400 2772 
z
" transform="scale(0.015625)"/>
      <path id="DejaVuSans-Bold-58" d="M 500 1363 
L 500 3500 
L 1625 3500 
L 1625 3150 
Q 1625 2866 1622 2436 
Q 1619 2006 1619 1863 
Q 1619 1441 1641 1255 
Q 1663 1069 1716 984 
Q 1784 875 1895 815 
Q 2006 756 2150 756 
Q 2500 756 2700 1025 
Q 2900 1294 2900 1772 
L 2900 3500 
L 4019 3500 
L 4019 0 
L 2900 0 
L 2900 506 
Q 2647 200 2364 54 
Q 2081 -91 1741 -91 
Q 1134 -91 817 281 
Q 500 653 500 1363 
z
" transform="scale(0.015625)"/>
      <path id="DejaVuSans-Bold-1e" d="M 716 1209 
L 1844 1209 
L 1844 256 
L 1069 -909 
L 403 -909 
L 716 256 
L 716 1209 
z
M 716 3500 
L 1844 3500 
L 1844 2291 
L 716 2291 
L 716 3500 
z
" transform="scale(0.015625)"/>
      <path id="DejaVuSans-Bold-1b" d="M 2228 2088 
Q 1891 2088 1709 1903 
Q 1528 1719 1528 1375 
Q 1528 1031 1709 848 
Q 1891 666 2228 666 
Q 2563 666 2741 848 
Q 2919 1031 2919 1375 
Q 2919 1722 2741 1905 
Q 2563 2088 2228 2088 
z
M 1350 2484 
Q 925 2613 709 2878 
Q 494 3144 494 3541 
Q 494 4131 934 4440 
Q 1375 4750 2228 4750 
Q 3075 4750 3515 4442 
Q 3956 4134 3956 3541 
Q 3956 3144 3739 2878 
Q 3522 2613 3097 2484 
Q 3572 2353 3814 2058 
Q 4056 1763 4056 1313 
Q 4056 619 3595 264 
Q 3134 -91 2228 -91 
Q 1319 -91 855 264 
Q 391 619 391 1313 
Q 391 1763 633 2058 
Q 875 2353 1350 2484 
z
M 1631 3419 
Q 1631 3141 1786 2991 
Q 1941 2841 2228 2841 
Q 2509 2841 2662 2991 
Q 2816 3141 2816 3419 
Q 2816 3697 2662 3845 
Q 2509 3994 2228 3994 
Q 1941 3994 1786 3844 
Q 1631 3694 1631 3419 
z
" transform="scale(0.015625)"/>
      <path id="DejaVuSans-Bold-c" d="M 513 -844 
Q 913 -100 1113 609 
Q 1313 1319 1313 2009 
Q 1313 2700 1113 3408 
Q 913 4116 513 4856 
L 1441 4856 
Q 1916 4091 2145 3389 
Q 2375 2688 2375 2003 
Q 2375 1319 2147 623 
Q 1919 -72 1441 -844 
L 513 -844 
z
" transform="scale(0.015625)"/>
     </defs>
     <use xlink:href="#DejaVuSans-Bold-33"/>
     <use xlink:href="#DejaVuSans-Bold-52" transform="translate(73.296875 0)"/>
     <use xlink:href="#DejaVuSans-Bold-56" transform="translate(142 0)"/>
     <use xlink:href="#DejaVuSans-Bold-57" transform="translate(201.515625 0)"/>
     <use xlink:href="#DejaVuSans-Bold-10" transform="translate(249.3125 0)"/>
     <use xlink:href="#DejaVuSans-Bold-13ac" transform="translate(290.8125 0)"/>
     <use xlink:href="#DejaVuSans-Bold-4c" transform="translate(364.9375 0)"/>
     <use xlink:href="#DejaVuSans-Bold-4a" transform="translate(399.21875 0)"/>
     <use xlink:href="#DejaVuSans-Bold-4b" transform="translate(470.796875 0)"/>
     <use xlink:href="#DejaVuSans-Bold-57" transform="translate(541.984375 0)"/>
     <use xlink:href="#DejaVuSans-Bold-3" transform="translate(589.78125 0)"/>
     <use xlink:href="#DejaVuSans-Bold-52" transform="translate(624.59375 0)"/>
     <use xlink:href="#DejaVuSans-Bold-59" transform="translate(693.296875 0)"/>
     <use xlink:href="#DejaVuSans-Bold-48" transform="translate(758.484375 0)"/>
     <use xlink:href="#DejaVuSans-Bold-55" transform="translate(826.3125 0)"/>
     <use xlink:href="#DejaVuSans-Bold-55" transform="translate(875.625 0)"/>
     <use xlink:href="#DejaVuSans-Bold-4c" transform="translate(924.9375 0)"/>
     <use xlink:href="#DejaVuSans-Bold-47" transform="translate(959.21875 0)"/>
     <use xlink:href="#DejaVuSans-Bold-48" transform="translate(1030.796875 0)"/>
     <use xlink:href="#DejaVuSans-Bold-56" transform="translate(1098.625 0)"/>
     <use xlink:href="#DejaVuSans-Bold-3" transform="translate(1158.140625 0)"/>
     <use xlink:href="#DejaVuSans-Bold-45" transform="translate(1192.953125 0)"/>
     <use xlink:href="#DejaVuSans-Bold-5c" transform="translate(1264.53125 0)"/>
     <use xlink:href="#DejaVuSans-Bold-3" transform="translate(1329.71875 0)"/>
     <use xlink:href="#DejaVuSans-Bold-57" transform="translate(1364.53125 0)"/>
     <use xlink:href="#DejaVuSans-Bold-55" transform="translate(1412.328125 0)"/>
     <use xlink:href="#DejaVuSans-Bold-4c" transform="translate(1461.640625 0)"/>
     <use xlink:href="#DejaVuSans-Bold-4a" transform="translate(1495.921875 0)"/>
     <use xlink:href="#DejaVuSans-Bold-4a" transform="translate(1567.5 0)"/>
     <use xlink:href="#DejaVuSans-Bold-48" transform="translate(1639.078125 0)"/>
     <use xlink:href="#DejaVuSans-Bold-55" transform="translate(1706.90625 0)"/>
     <use xlink:href="#DejaVuSans-Bold-3" transform="translate(1756.21875 0)"/>
     <use xlink:href="#DejaVuSans-Bold-af6" transform="translate(1791.03125 0)"/>
     <use xlink:href="#DejaVuSans-Bold-3" transform="translate(1891.03125 0)"/>
     <use xlink:href="#DejaVuSans-Bold-50" transform="translate(1925.84375 0)"/>
     <use xlink:href="#DejaVuSans-Bold-48" transform="translate(2030.046875 0)"/>
     <use xlink:href="#DejaVuSans-Bold-46" transform="translate(2097.875 0)"/>
     <use xlink:href="#DejaVuSans-Bold-4b" transform="translate(2157.15625 0)"/>
     <use xlink:href="#DejaVuSans-Bold-44" transform="translate(2228.34375 0)"/>
     <use xlink:href="#DejaVuSans-Bold-51" transform="translate(2295.828125 0)"/>
     <use xlink:href="#DejaVuSans-Bold-4c" transform="translate(2367.015625 0)"/>
     <use xlink:href="#DejaVuSans-Bold-56" transform="translate(2401.296875 0)"/>
     <use xlink:href="#DejaVuSans-Bold-50" transform="translate(2460.8125 0)"/>
     <use xlink:href="#DejaVuSans-Bold-3" transform="translate(2565.015625 0)"/>
     <use xlink:href="#DejaVuSans-Bold-47" transform="translate(2599.828125 0)"/>
     <use xlink:href="#DejaVuSans-Bold-48" transform="translate(2671.40625 0)"/>
     <use xlink:href="#DejaVuSans-Bold-50" transform="translate(2739.234375 0)"/>
     <use xlink:href="#DejaVuSans-Bold-52" transform="translate(2843.4375 0)"/>
     <use xlink:href="#DejaVuSans-Bold-51" transform="translate(2912.140625 0)"/>
     <use xlink:href="#DejaVuSans-Bold-56" transform="translate(2983.328125 0)"/>
     <use xlink:href="#DejaVuSans-Bold-57" transform="translate(3042.84375 0)"/>
     <use xlink:href="#DejaVuSans-Bold-55" transform="translate(3090.640625 0)"/>
     <use xlink:href="#DejaVuSans-Bold-44" transform="translate(3139.953125 0)"/>
     <use xlink:href="#DejaVuSans-Bold-57" transform="translate(3207.4375 0)"/>
     <use xlink:href="#DejaVuSans-Bold-4c" transform="translate(3255.234375 0)"/>
     <use xlink:href="#DejaVuSans-Bold-52" transform="translate(3289.515625 0)"/>
     <use xlink:href="#DejaVuSans-Bold-51" transform="translate(3358.21875 0)"/>
     <use xlink:href="#DejaVuSans-Bold-3" transform="translate(3429.40625 0)"/>
     <use xlink:href="#DejaVuSans-Bold-b" transform="translate(3464.21875 0)"/>
     <use xlink:href="#DejaVuSans-Bold-46" transform="translate(3509.921875 0)"/>
     <use xlink:href="#DejaVuSans-Bold-55" transform="translate(3569.203125 0)"/>
     <use xlink:href="#DejaVuSans-Bold-4c" transform="translate(3618.515625 0)"/>
     <use xlink:href="#DejaVuSans-Bold-57" transform="translate(3652.796875 0)"/>
     <use xlink:href="#DejaVuSans-Bold-4c" transform="translate(3700.59375 0)"/>
     <use xlink:href="#DejaVuSans-Bold-46" transform="translate(3734.875 0)"/>
     <use xlink:href="#DejaVuSans-Bold-44" transform="translate(3794.15625 0)"/>
     <use xlink:href="#DejaVuSans-Bold-4f" transform="translate(3861.640625 0)"/>
     <use xlink:href="#DejaVuSans-Bold-3" transform="translate(3895.921875 0)"/>
     <use xlink:href="#DejaVuSans-Bold-45" transform="translate(3930.734375 0)"/>
     <use xlink:href="#DejaVuSans-Bold-44" transform="translate(4002.3125 0)"/>
     <use xlink:href="#DejaVuSans-Bold-55" transform="translate(4069.796875 0)"/>
     <use xlink:href="#DejaVuSans-Bold-1d" transform="translate(4119.109375 0)"/>
     <use xlink:href="#DejaVuSans-Bold-3" transform="translate(4159.09375 0)"/>
     <use xlink:href="#DejaVuSans-Bold-55" transform="translate(4193.90625 0)"/>
     <use xlink:href="#DejaVuSans-Bold-48" transform="translate(4243.21875 0)"/>
     <use xlink:href="#DejaVuSans-Bold-44" transform="translate(4311.046875 0)"/>
     <use xlink:href="#DejaVuSans-Bold-4f" transform="translate(4378.53125 0)"/>
     <use xlink:href="#DejaVuSans-Bold-f" transform="translate(4412.8125 0)"/>
     <use xlink:href="#DejaVuSans-Bold-3" transform="translate(4450.796875 0)"/>
     <use xlink:href="#DejaVuSans-Bold-51" transform="translate(4485.609375 0)"/>
     <use xlink:href="#DejaVuSans-Bold-20" transform="translate(4556.796875 0)"/>
     <use xlink:href="#DejaVuSans-Bold-1c" transform="translate(4640.59375 0)"/>
     <use xlink:href="#DejaVuSans-Bold-1c" transform="translate(4710.171875 0)"/>
     <use xlink:href="#DejaVuSans-Bold-3" transform="translate(4779.75 0)"/>
     <use xlink:href="#DejaVuSans-Bold-53" transform="translate(4814.5625 0)"/>
     <use xlink:href="#DejaVuSans-Bold-52" transform="translate(4886.140625 0)"/>
     <use xlink:href="#DejaVuSans-Bold-53" transform="translate(4954.84375 0)"/>
     <use xlink:href="#DejaVuSans-Bold-58" transform="translate(5026.421875 0)"/>
     <use xlink:href="#DejaVuSans-Bold-4f" transform="translate(5097.609375 0)"/>
     <use xlink:href="#DejaVuSans-Bold-44" transform="translate(5131.890625 0)"/>
     <use xlink:href="#DejaVuSans-Bold-57" transform="translate(5199.375 0)"/>
     <use xlink:href="#DejaVuSans-Bold-4c" transform="translate(5247.171875 0)"/>
     <use xlink:href="#DejaVuSans-Bold-52" transform="translate(5281.453125 0)"/>
     <use xlink:href="#DejaVuSans-Bold-51" transform="translate(5350.15625 0)"/>
     <use xlink:href="#DejaVuSans-Bold-3" transform="translate(5421.34375 0)"/>
     <use xlink:href="#DejaVuSans-Bold-55" transform="translate(5456.15625 0)"/>
     <use xlink:href="#DejaVuSans-Bold-48" transform="translate(5505.46875 0)"/>
     <use xlink:href="#DejaVuSans-Bold-56" transform="translate(5573.296875 0)"/>
     <use xlink:href="#DejaVuSans-Bold-58" transform="translate(5632.8125 0)"/>
     <use xlink:href="#DejaVuSans-Bold-4f" transform="translate(5704 0)"/>
     <use xlink:href="#DejaVuSans-Bold-57" transform="translate(5738.28125 0)"/>
     <use xlink:href="#DejaVuSans-Bold-56" transform="translate(5786.078125 0)"/>
     <use xlink:href="#DejaVuSans-Bold-1e" transform="translate(5845.59375 0)"/>
     <use xlink:href="#DejaVuSans-Bold-3" transform="translate(5885.578125 0)"/>
     <use xlink:href="#DejaVuSans-Bold-52" transform="translate(5920.390625 0)"/>
     <use xlink:href="#DejaVuSans-Bold-57" transform="translate(5989.09375 0)"/>
     <use xlink:href="#DejaVuSans-Bold-4b" transform="translate(6036.890625 0)"/>
     <use xlink:href="#DejaVuSans-Bold-48" transform="translate(6108.078125 0)"/>
     <use xlink:href="#DejaVuSans-Bold-55" transform="translate(6175.90625 0)"/>
     <use xlink:href="#DejaVuSans-Bold-56" transform="translate(6225.21875 0)"/>
     <use xlink:href="#DejaVuSans-Bold-1d" transform="translate(6284.734375 0)"/>
     <use xlink:href="#DejaVuSans-Bold-3" transform="translate(6324.71875 0)"/>
     <use xlink:href="#DejaVuSans-Bold-46" transform="translate(6359.53125 0)"/>
     <use xlink:href="#DejaVuSans-Bold-52" transform="translate(6418.8125 0)"/>
     <use xlink:href="#DejaVuSans-Bold-50" transform="translate(6487.515625 0)"/>
     <use xlink:href="#DejaVuSans-Bold-50" transform="translate(6591.71875 0)"/>
     <use xlink:href="#DejaVuSans-Bold-4c" transform="translate(6695.921875 0)"/>
     <use xlink:href="#DejaVuSans-Bold-57" transform="translate(6730.203125 0)"/>
     <use xlink:href="#DejaVuSans-Bold-57" transform="translate(6778 0)"/>
     <use xlink:href="#DejaVuSans-Bold-48" transform="translate(6825.796875 0)"/>
     <use xlink:href="#DejaVuSans-Bold-47" transform="translate(6893.625 0)"/>
     <use xlink:href="#DejaVuSans-Bold-3" transform="translate(6965.203125 0)"/>
     <use xlink:href="#DejaVuSans-Bold-45" transform="translate(7000.015625 0)"/>
     <use xlink:href="#DejaVuSans-Bold-44" transform="translate(7071.59375 0)"/>
     <use xlink:href="#DejaVuSans-Bold-57" transform="translate(7139.078125 0)"/>
     <use xlink:href="#DejaVuSans-Bold-57" transform="translate(7186.875 0)"/>
     <use xlink:href="#DejaVuSans-Bold-48" transform="translate(7234.671875 0)"/>
     <use xlink:href="#DejaVuSans-Bold-55" transform="translate(7302.5 0)"/>
     <use xlink:href="#DejaVuSans-Bold-5c" transform="translate(7351.8125 0)"/>
     <use xlink:href="#DejaVuSans-Bold-1e" transform="translate(7417 0)"/>
     <use xlink:href="#DejaVuSans-Bold-3" transform="translate(7456.984375 0)"/>
     <use xlink:href="#DejaVuSans-Bold-55" transform="translate(7491.796875 0)"/>
     <use xlink:href="#DejaVuSans-Bold-48" transform="translate(7541.109375 0)"/>
     <use xlink:href="#DejaVuSans-Bold-44" transform="translate(7608.9375 0)"/>
     <use xlink:href="#DejaVuSans-Bold-4f" transform="translate(7676.421875 0)"/>
     <use xlink:href="#DejaVuSans-Bold-3" transform="translate(7710.703125 0)"/>
     <use xlink:href="#DejaVuSans-Bold-55" transform="translate(7745.515625 0)"/>
     <use xlink:href="#DejaVuSans-Bold-44" transform="translate(7794.828125 0)"/>
     <use xlink:href="#DejaVuSans-Bold-57" transform="translate(7862.3125 0)"/>
     <use xlink:href="#DejaVuSans-Bold-48" transform="translate(7910.109375 0)"/>
     <use xlink:href="#DejaVuSans-Bold-56" transform="translate(7977.9375 0)"/>
     <use xlink:href="#DejaVuSans-Bold-3" transform="translate(8037.453125 0)"/>
     <use xlink:href="#DejaVuSans-Bold-4c" transform="translate(8072.265625 0)"/>
     <use xlink:href="#DejaVuSans-Bold-51" transform="translate(8106.546875 0)"/>
     <use xlink:href="#DejaVuSans-Bold-3" transform="translate(8177.734375 0)"/>
     <use xlink:href="#DejaVuSans-Bold-33" transform="translate(8212.546875 0)"/>
     <use xlink:href="#DejaVuSans-Bold-4b" transform="translate(8285.84375 0)"/>
     <use xlink:href="#DejaVuSans-Bold-44" transform="translate(8357.03125 0)"/>
     <use xlink:href="#DejaVuSans-Bold-56" transform="translate(8424.515625 0)"/>
     <use xlink:href="#DejaVuSans-Bold-48" transform="translate(8484.03125 0)"/>
     <use xlink:href="#DejaVuSans-Bold-3" transform="translate(8551.859375 0)"/>
     <use xlink:href="#DejaVuSans-Bold-1b" transform="translate(8586.671875 0)"/>
     <use xlink:href="#DejaVuSans-Bold-c" transform="translate(8656.25 0)"/>
    </g>
   </g>
  </g>
  <g id="text_18">
   <!-- What overrode, and why -->
   <g transform="translate(287.268578 17.229937) scale(0.132 -0.132)">
    <defs>
     <path id="DejaVuSans-Bold-3a" d="M 191 4666 
L 1344 4666 
L 2150 1275 
L 2950 4666 
L 4109 4666 
L 4909 1275 
L 5716 4666 
L 6859 4666 
L 5759 0 
L 4372 0 
L 3525 3547 
L 2688 0 
L 1300 0 
L 191 4666 
z
" transform="scale(0.015625)"/>
     <path id="DejaVuSans-Bold-5a" d="M 225 3500 
L 1313 3500 
L 1900 1088 
L 2491 3500 
L 3425 3500 
L 4013 1113 
L 4603 3500 
L 5691 3500 
L 4769 0 
L 3547 0 
L 2956 2406 
L 2369 0 
L 1147 0 
L 225 3500 
z
" transform="scale(0.015625)"/>
    </defs>
    <use xlink:href="#DejaVuSans-Bold-3a"/>
    <use xlink:href="#DejaVuSans-Bold-4b" transform="translate(110.296875 0)"/>
    <use xlink:href="#DejaVuSans-Bold-44" transform="translate(181.484375 0)"/>
    <use xlink:href="#DejaVuSans-Bold-57" transform="translate(248.96875 0)"/>
    <use xlink:href="#DejaVuSans-Bold-3" transform="translate(296.765625 0)"/>
    <use xlink:href="#DejaVuSans-Bold-52" transform="translate(331.578125 0)"/>
    <use xlink:href="#DejaVuSans-Bold-59" transform="translate(400.28125 0)"/>
    <use xlink:href="#DejaVuSans-Bold-48" transform="translate(465.46875 0)"/>
    <use xlink:href="#DejaVuSans-Bold-55" transform="translate(533.296875 0)"/>
    <use xlink:href="#DejaVuSans-Bold-55" transform="translate(582.609375 0)"/>
    <use xlink:href="#DejaVuSans-Bold-52" transform="translate(631.921875 0)"/>
    <use xlink:href="#DejaVuSans-Bold-47" transform="translate(700.625 0)"/>
    <use xlink:href="#DejaVuSans-Bold-48" transform="translate(772.203125 0)"/>
    <use xlink:href="#DejaVuSans-Bold-f" transform="translate(840.03125 0)"/>
    <use xlink:href="#DejaVuSans-Bold-3" transform="translate(878.015625 0)"/>
    <use xlink:href="#DejaVuSans-Bold-44" transform="translate(912.828125 0)"/>
    <use xlink:href="#DejaVuSans-Bold-51" transform="translate(980.3125 0)"/>
    <use xlink:href="#DejaVuSans-Bold-47" transform="translate(1051.5 0)"/>
    <use xlink:href="#DejaVuSans-Bold-3" transform="translate(1123.078125 0)"/>
    <use xlink:href="#DejaVuSans-Bold-5a" transform="translate(1157.890625 0)"/>
    <use xlink:href="#DejaVuSans-Bold-4b" transform="translate(1250.28125 0)"/>
    <use xlink:href="#DejaVuSans-Bold-5c" transform="translate(1321.46875 0)"/>
   </g>
  </g>
 </g>
 <defs>
  <clipPath id="p35ecf8105f">
   <rect x="142.667891" y="50.211094" width="512.24" height="279.908906"/>
  </clipPath>
 </defs>
</svg>
