<?xml version="1.0" encoding="utf-8" standalone="no"?>
<!DOCTYPE svg PUBLIC "-//W3C//DTD SVG 1.1//EN"
  "http://www.w3.org/Graphics/SVG/1.1/DTD/svg11.dtd">
<svg xmlns:xlink="http://www.w3.org/1999/xlink" width="566.134297pt" height="337.321719pt" viewBox="0 0 566.134297 337.321719" xmlns="http://www.w3.org/2000/svg" version="1.1">
 <metadata>
  <rdf:RDF xmlns:dc="http://purl.org/dc/elements/1.1/" xmlns:cc="http://creativecommons.org/ns#" xmlns:rdf="http://www.w3.org/1999/02/22-rdf-syntax-ns#">
   <cc:Work>
    <dc:type rdf:resource="http://purl.org/dc/dcmitype/StillImage"/>
    <dc:format>image/svg+xml</dc:format>
    <dc:creator>
     <cc:Agent>
      <dc:title>Matplotlib v3.11.1, https://matplotlib.org/</dc:title>
     </cc:Agent>
    </dc:creator>
   </cc:Work>
  </rdf:RDF>
 </metadata>
 <defs>
  <style type="text/css">*{stroke-linejoin: round; stroke-linecap: butt}</style>
 </defs>
 <g id="figure_1">
  <g id="patch_1">
   <path d="M 0 337.321719 
L 566.134297 337.321719 
L 566.134297 0 
L 0 0 
z
" style="fill: #0d1117"/>
  </g>
  <g id="axes_1">
   <g id="patch_2">
    <path d="M 46.694297 296.715703 
L 558.934297 296.715703 
L 558.934297 50.211094 
L 46.694297 50.211094 
z
" style="fill: #0d1117"/>
   </g>
   <g id="patch_3">
    <path d="M 69.977933 296.715703 
L 203.027284 296.715703 
L 203.027284 82.363869 
L 69.977933 82.363869 
z
" clip-path="url(#pe43a4bc8ef)" style="fill: #059669"/>
   </g>
   <g id="patch_4">
    <path d="M 236.289622 296.715703 
L 369.338972 296.715703 
L 369.338972 82.363869 
L 236.289622 82.363869 
z
" clip-path="url(#pe43a4bc8ef)" style="fill: #d97706"/>
   </g>
   <g id="patch_5">
    <path d="M 402.60131 296.715703 
L 535.650661 296.715703 
L 535.650661 82.363869 
L 402.60131 82.363869 
z
" clip-path="url(#pe43a4bc8ef)" style="fill: #059669"/>
   </g>
   <g id="matplotlib.axis_1">
    <g id="xtick_1">
     <g id="line2d_1">
      <path d="M 136.502609 296.715703 
L 136.502609 50.211094 
" clip-path="url(#pe43a4bc8ef)" style="fill: none; stroke: #e5e7eb; stroke-width: 0.6; stroke-linecap: square"/>
     </g>
     <g id="line2d_2">
      <defs>
       <path id="m8bdcfff4e3" d="M 0 0 
L 0 3.5 
" style="stroke: #e5e7eb; stroke-width: 0.8"/>
      </defs>
      <g>
       <use xlink:href="#m8bdcfff4e3" x="136.502609" y="296.715703" style="fill: #e5e7eb; stroke: #e5e7eb; stroke-width: 0.8"/>
      </g>
     </g>
     <g id="text_1">
      <!-- Positive -->
      <g style="fill: #e5e7eb" transform="translate(115.300109 313.175059) scale(0.11 -0.11)">
       <defs>
        <path id="DejaVuSans-33" d="M 1259 4147 
L 1259 2394 
L 2053 2394 
Q 2494 2394 2734 2622 
Q 2975 2850 2975 3272 
Q 2975 3691 2734 3919 
Q 2494 4147 2053 4147 
L 1259 4147 
z
M 628 4666 
L 2053 4666 
Q 2838 4666 3239 4311 
Q 3641 3956 3641 3272 
Q 3641 2581 3239 2228 
Q 2838 1875 2053 1875 
L 1259 1875 
L 1259 0 
L 628 0 
L 628 4666 
z
" transform="scale(0.015625)"/>
        <path id="DejaVuSans-52" d="M 1959 3097 
Q 1497 3097 1228 2736 
Q 959 2375 959 1747 
Q 959 1119 1226 758 
Q 1494 397 1959 397 
Q 2419 397 2687 759 
Q 2956 1122 2956 1747 
Q 2956 2369 2687 2733 
Q 2419 3097 1959 3097 
z
M 1959 3584 
Q 2709 3584 3137 3096 
Q 3566 2609 3566 1747 
Q 3566 888 3137 398 
Q 2709 -91 1959 -91 
Q 1206 -91 779 398 
Q 353 888 353 1747 
Q 353 2609 779 3096 
Q 1206 3584 1959 3584 
z
" transform="scale(0.015625)"/>
        <path id="DejaVuSans-56" d="M 2834 3397 
L 2834 2853 
Q 2591 2978 2328 3040 
Q 2066 3103 1784 3103 
Q 1356 3103 1142 2972 
Q 928 2841 928 2578 
Q 928 2378 1081 2264 
Q 1234 2150 1697 2047 
L 1894 2003 
Q 2506 1872 2764 1633 
Q 3022 1394 3022 966 
Q 3022 478 2636 193 
Q 2250 -91 1575 -91 
Q 1294 -91 989 -36 
Q 684 19 347 128 
L 347 722 
Q 666 556 975 473 
Q 1284 391 1588 391 
Q 1994 391 2212 530 
Q 2431 669 2431 922 
Q 2431 1156 2273 1281 
Q 2116 1406 1581 1522 
L 1381 1569 
Q 847 1681 609 1914 
Q 372 2147 372 2553 
Q 372 3047 722 3315 
Q 1072 3584 1716 3584 
Q 2034 3584 2315 3537 
Q 2597 3491 2834 3397 
z
" transform="scale(0.015625)"/>
        <path id="DejaVuSans-4c" d="M 603 3500 
L 1178 3500 
L 1178 0 
L 603 0 
L 603 3500 
z
M 603 4863 
L 1178 4863 
L 1178 4134 
L 603 4134 
L 603 4863 
z
" transform="scale(0.015625)"/>
        <path id="DejaVuSans-57" d="M 1172 4494 
L 1172 3500 
L 2356 3500 
L 2356 3053 
L 1172 3053 
L 1172 1153 
Q 1172 725 1289 603 
Q 1406 481 1766 481 
L 2356 481 
L 2356 0 
L 1766 0 
Q 1100 0 847 248 
Q 594 497 594 1153 
L 594 3053 
L 172 3053 
L 172 3500 
L 594 3500 
L 594 4494 
L 1172 4494 
z
" transform="scale(0.015625)"/>
        <path id="DejaVuSans-59" d="M 191 3500 
L 800 3500 
L 1894 563 
L 2988 3500 
L 3597 3500 
L 2284 0 
L 1503 0 
L 191 3500 
z
" transform="scale(0.015625)"/>
        <path id="DejaVuSans-48" d="M 3597 1894 
L 3597 1613 
L 953 1613 
Q 991 1019 1311 708 
Q 1631 397 2203 397 
Q 2534 397 2845 478 
Q 3156 559 3463 722 
L 3463 178 
Q 3153 47 2828 -22 
Q 2503 -91 2169 -91 
Q 1331 -91 842 396 
Q 353 884 353 1716 
Q 353 2575 817 3079 
Q 1281 3584 2069 3584 
Q 2775 3584 3186 3129 
Q 3597 2675 3597 1894 
z
M 3022 2063 
Q 3016 2534 2758 2815 
Q 2500 3097 2075 3097 
Q 1594 3097 1305 2825 
Q 1016 2553 972 2059 
L 3022 2063 
z
" transform="scale(0.015625)"/>
       </defs>
       <use xlink:href="#DejaVuSans-33"/>
       <use xlink:href="#DejaVuSans-52" transform="translate(56.734375 0)"/>
       <use xlink:href="#DejaVuSans-56" transform="translate(117.921875 0)"/>
       <use xlink:href="#DejaVuSans-4c" transform="translate(170.015625 0)"/>
       <use xlink:href="#DejaVuSans-57" transform="translate(197.796875 0)"/>
       <use xlink:href="#DejaVuSans-4c" transform="translate(237 0)"/>
       <use xlink:href="#DejaVuSans-59" transform="translate(264.78125 0)"/>
       <use xlink:href="#DejaVuSans-48" transform="translate(323.96875 0)"/>
      </g>
      <!-- (should fire) -->
      <g style="fill: #e5e7eb" transform="translate(103.25339 326.378066) scale(0.11 -0.11)">
       <defs>
        <path id="DejaVuSans-b" d="M 1984 4856 
Q 1566 4138 1362 3434 
Q 1159 2731 1159 2009 
Q 1159 1288 1364 580 
Q 1569 -128 1984 -844 
L 1484 -844 
Q 1016 -109 783 600 
Q 550 1309 550 2009 
Q 550 2706 781 3412 
Q 1013 4119 1484 4856 
L 1984 4856 
z
" transform="scale(0.015625)"/>
        <path id="DejaVuSans-4b" d="M 3513 2113 
L 3513 0 
L 2938 0 
L 2938 2094 
Q 2938 2591 2744 2837 
Q 2550 3084 2163 3084 
Q 1697 3084 1428 2787 
Q 1159 2491 1159 1978 
L 1159 0 
L 581 0 
L 581 4863 
L 1159 4863 
L 1159 2956 
Q 1366 3272 1645 3428 
Q 1925 3584 2291 3584 
Q 2894 3584 3203 3211 
Q 3513 2838 3513 2113 
z
" transform="scale(0.015625)"/>
        <path id="DejaVuSans-58" d="M 544 1381 
L 544 3500 
L 1119 3500 
L 1119 1403 
Q 1119 906 1312 657 
Q 1506 409 1894 409 
Q 2359 409 2629 706 
Q 2900 1003 2900 1516 
L 2900 3500 
L 3475 3500 
L 3475 0 
L 2900 0 
L 2900 538 
Q 2691 219 2414 64 
Q 2138 -91 1772 -91 
Q 1169 -91 856 284 
Q 544 659 544 1381 
z
M 1991 3584 
L 1991 3584 
z
" transform="scale(0.015625)"/>
        <path id="DejaVuSans-4f" d="M 603 4863 
L 1178 4863 
L 1178 0 
L 603 0 
L 603 4863 
z
" transform="scale(0.015625)"/>
        <path id="DejaVuSans-47" d="M 2906 2969 
L 2906 4863 
L 3481 4863 
L 3481 0 
L 2906 0 
L 2906 525 
Q 2725 213 2448 61 
Q 2172 -91 1784 -91 
Q 1150 -91 751 415 
Q 353 922 353 1747 
Q 353 2572 751 3078 
Q 1150 3584 1784 3584 
Q 2172 3584 2448 3432 
Q 2725 3281 2906 2969 
z
M 947 1747 
Q 947 1113 1208 752 
Q 1469 391 1925 391 
Q 2381 391 2643 752 
Q 2906 1113 2906 1747 
Q 2906 2381 2643 2742 
Q 2381 3103 1925 3103 
Q 1469 3103 1208 2742 
Q 947 2381 947 1747 
z
" transform="scale(0.015625)"/>
        <path id="DejaVuSans-3" transform="scale(0.015625)"/>
        <path id="DejaVuSans-13af" d="M 3431 3500 
L 3431 0 
L 2853 0 
L 2853 3053 
L 1275 3053 
L 1275 0 
L 697 0 
L 697 3053 
L 147 3053 
L 147 3500 
L 697 3500 
L 697 3744 
Q 697 4316 967 4589 
Q 1238 4863 1797 4863 
L 2375 4863 
L 2375 4384 
L 1825 4384 
Q 1516 4384 1395 4259 
Q 1275 4134 1275 3809 
L 1275 3500 
L 3431 3500 
z
M 2853 4856 
L 3431 4856 
L 3431 4128 
L 2853 4128 
L 2853 4856 
z
" transform="scale(0.015625)"/>
        <path id="DejaVuSans-55" d="M 2631 2963 
Q 2534 3019 2420 3045 
Q 2306 3072 2169 3072 
Q 1681 3072 1420 2755 
Q 1159 2438 1159 1844 
L 1159 0 
L 581 0 
L 581 3500 
L 1159 3500 
L 1159 2956 
Q 1341 3275 1631 3429 
Q 1922 3584 2338 3584 
Q 2397 3584 2469 3576 
Q 2541 3569 2628 3553 
L 2631 2963 
z
" transform="scale(0.015625)"/>
        <path id="DejaVuSans-c" d="M 513 4856 
L 1013 4856 
Q 1481 4119 1714 3412 
Q 1947 2706 1947 2009 
Q 1947 1309 1714 600 
Q 1481 -109 1013 -844 
L 513 -844 
Q 928 -128 1133 580 
Q 1338 1288 1338 2009 
Q 1338 2731 1133 3434 
Q 928 4138 513 4856 
z
" transform="scale(0.015625)"/>
       </defs>
       <use xlink:href="#DejaVuSans-b"/>
       <use xlink:href="#DejaVuSans-56" transform="translate(39.015625 0)"/>
       <use xlink:href="#DejaVuSans-4b" transform="translate(91.109375 0)"/>
       <use xlink:href="#DejaVuSans-52" transform="translate(154.484375 0)"/>
       <use xlink:href="#DejaVuSans-58" transform="translate(215.671875 0)"/>
       <use xlink:href="#DejaVuSans-4f" transform="translate(279.046875 0)"/>
       <use xlink:href="#DejaVuSans-47" transform="translate(306.828125 0)"/>
       <use xlink:href="#DejaVuSans-3" transform="translate(370.3125 0)"/>
       <use xlink:href="#DejaVuSans-13af" transform="translate(402.09375 0)"/>
       <use xlink:href="#DejaVuSans-55" transform="translate(465.078125 0)"/>
       <use xlink:href="#DejaVuSans-48" transform="translate(503.984375 0)"/>
       <use xlink:href="#DejaVuSans-c" transform="translate(565.515625 0)"/>
      </g>
     </g>
    </g>
    <g id="xtick_2">
     <g id="line2d_3">
      <path d="M 302.814297 296.715703 
L 302.814297 50.211094 
" clip-path="url(#pe43a4bc8ef)" style="fill: none; stroke: #e5e7eb; stroke-width: 0.6; stroke-linecap: square"/>
     </g>
     <g id="line2d_4">
      <g>
       <use xlink:href="#m8bdcfff4e3" x="302.814297" y="296.715703" style="fill: #e5e7eb; stroke: #e5e7eb; stroke-width: 0.8"/>
      </g>
     </g>
     <g id="text_2">
      <!-- Metaphor -->
      <g style="fill: #e5e7eb" transform="translate(276.554375 313.175059) scale(0.11 -0.11)">
       <defs>
        <path id="DejaVuSans-30" d="M 628 4666 
L 1569 4666 
L 2759 1491 
L 3956 4666 
L 4897 4666 
L 4897 0 
L 4281 0 
L 4281 4097 
L 3078 897 
L 2444 897 
L 1241 4097 
L 1241 0 
L 628 0 
L 628 4666 
z
" transform="scale(0.015625)"/>
        <path id="DejaVuSans-44" d="M 2194 1759 
Q 1497 1759 1228 1600 
Q 959 1441 959 1056 
Q 959 750 1161 570 
Q 1363 391 1709 391 
Q 2188 391 2477 730 
Q 2766 1069 2766 1631 
L 2766 1759 
L 2194 1759 
z
M 3341 1997 
L 3341 0 
L 2766 0 
L 2766 531 
Q 2569 213 2275 61 
Q 1981 -91 1556 -91 
Q 1019 -91 701 211 
Q 384 513 384 1019 
Q 384 1609 779 1909 
Q 1175 2209 1959 2209 
L 2766 2209 
L 2766 2266 
Q 2766 2663 2505 2880 
Q 2244 3097 1772 3097 
Q 1472 3097 1187 3025 
Q 903 2953 641 2809 
L 641 3341 
Q 956 3463 1253 3523 
Q 1550 3584 1831 3584 
Q 2591 3584 2966 3190 
Q 3341 2797 3341 1997 
z
" transform="scale(0.015625)"/>
        <path id="DejaVuSans-53" d="M 1159 525 
L 1159 -1331 
L 581 -1331 
L 581 3500 
L 1159 3500 
L 1159 2969 
Q 1341 3281 1617 3432 
Q 1894 3584 2278 3584 
Q 2916 3584 3314 3078 
Q 3713 2572 3713 1747 
Q 3713 922 3314 415 
Q 2916 -91 2278 -91 
Q 1894 -91 1617 61 
Q 1341 213 1159 525 
z
M 3116 1747 
Q 3116 2381 2855 2742 
Q 2594 3103 2138 3103 
Q 1681 3103 1420 2742 
Q 1159 2381 1159 1747 
Q 1159 1113 1420 752 
Q 1681 391 2138 391 
Q 2594 391 2855 752 
Q 3116 1113 3116 1747 
z
" transform="scale(0.015625)"/>
       </defs>
       <use xlink:href="#DejaVuSans-30"/>
       <use xlink:href="#DejaVuSans-48" transform="translate(86.28125 0)"/>
       <use xlink:href="#DejaVuSans-57" transform="translate(147.8125 0)"/>
       <use xlink:href="#DejaVuSans-44" transform="translate(187.015625 0)"/>
       <use xlink:href="#DejaVuSans-53" transform="translate(248.296875 0)"/>
       <use xlink:href="#DejaVuSans-4b" transform="translate(311.78125 0)"/>
       <use xlink:href="#DejaVuSans-52" transform="translate(375.15625 0)"/>
       <use xlink:href="#DejaVuSans-55" transform="translate(436.34375 0)"/>
      </g>
      <!-- (expected miss) -->
      <g style="fill: #e5e7eb" transform="translate(258.683672 326.378066) scale(0.11 -0.11)">
       <defs>
        <path id="DejaVuSans-5b" d="M 3513 3500 
L 2247 1797 
L 3578 0 
L 2900 0 
L 1881 1375 
L 863 0 
L 184 0 
L 1544 1831 
L 300 3500 
L 978 3500 
L 1906 2253 
L 2834 3500 
L 3513 3500 
z
" transform="scale(0.015625)"/>
        <path id="DejaVuSans-46" d="M 3122 3366 
L 3122 2828 
Q 2878 2963 2633 3030 
Q 2388 3097 2138 3097 
Q 1578 3097 1268 2742 
Q 959 2388 959 1747 
Q 959 1106 1268 751 
Q 1578 397 2138 397 
Q 2388 397 2633 464 
Q 2878 531 3122 666 
L 3122 134 
Q 2881 22 2623 -34 
Q 2366 -91 2075 -91 
Q 1284 -91 818 406 
Q 353 903 353 1747 
Q 353 2603 823 3093 
Q 1294 3584 2113 3584 
Q 2378 3584 2631 3529 
Q 2884 3475 3122 3366 
z
" transform="scale(0.015625)"/>
        <path id="DejaVuSans-50" d="M 3328 2828 
Q 3544 3216 3844 3400 
Q 4144 3584 4550 3584 
Q 5097 3584 5394 3201 
Q 5691 2819 5691 2113 
L 5691 0 
L 5113 0 
L 5113 2094 
Q 5113 2597 4934 2840 
Q 4756 3084 4391 3084 
Q 3944 3084 3684 2787 
Q 3425 2491 3425 1978 
L 3425 0 
L 2847 0 
L 2847 2094 
Q 2847 2600 2669 2842 
Q 2491 3084 2119 3084 
Q 1678 3084 1418 2786 
Q 1159 2488 1159 1978 
L 1159 0 
L 581 0 
L 581 3500 
L 1159 3500 
L 1159 2956 
Q 1356 3278 1631 3431 
Q 1906 3584 2284 3584 
Q 2666 3584 2933 3390 
Q 3200 3197 3328 2828 
z
" transform="scale(0.015625)"/>
       </defs>
       <use xlink:href="#DejaVuSans-b"/>
       <use xlink:href="#DejaVuSans-48" transform="translate(39.015625 0)"/>
       <use xlink:href="#DejaVuSans-5b" transform="translate(98.796875 0)"/>
       <use xlink:href="#DejaVuSans-53" transform="translate(157.984375 0)"/>
       <use xlink:href="#DejaVuSans-48" transform="translate(221.46875 0)"/>
       <use xlink:href="#DejaVuSans-46" transform="translate(283 0)"/>
       <use xlink:href="#DejaVuSans-57" transform="translate(337.984375 0)"/>
       <use xlink:href="#DejaVuSans-48" transform="translate(377.1875 0)"/>
       <use xlink:href="#DejaVuSans-47" transform="translate(438.71875 0)"/>
       <use xlink:href="#DejaVuSans-3" transform="translate(502.203125 0)"/>
       <use xlink:href="#DejaVuSans-50" transform="translate(533.984375 0)"/>
       <use xlink:href="#DejaVuSans-4c" transform="translate(631.390625 0)"/>
       <use xlink:href="#DejaVuSans-56" transform="translate(659.171875 0)"/>
       <use xlink:href="#DejaVuSans-56" transform="translate(711.265625 0)"/>
       <use xlink:href="#DejaVuSans-c" transform="translate(763.359375 0)"/>
      </g>
     </g>
    </g>
    <g id="xtick_3">
     <g id="line2d_5">
      <path d="M 469.125985 296.715703 
L 469.125985 50.211094 
" clip-path="url(#pe43a4bc8ef)" style="fill: none; stroke: #e5e7eb; stroke-width: 0.6; stroke-linecap: square"/>
     </g>
     <g id="line2d_6">
      <g>
       <use xlink:href="#m8bdcfff4e3" x="469.125985" y="296.715703" style="fill: #e5e7eb; stroke: #e5e7eb; stroke-width: 0.8"/>
      </g>
     </g>
     <g id="text_3">
      <!-- Suppressed -->
      <g style="fill: #e5e7eb" transform="translate(437.035204 313.175059) scale(0.11 -0.11)">
       <defs>
        <path id="DejaVuSans-36" d="M 3425 4513 
L 3425 3897 
Q 3066 4069 2747 4153 
Q 2428 4238 2131 4238 
Q 1616 4238 1336 4038 
Q 1056 3838 1056 3469 
Q 1056 3159 1242 3001 
Q 1428 2844 1947 2747 
L 2328 2669 
Q 3034 2534 3370 2195 
Q 3706 1856 3706 1288 
Q 3706 609 3251 259 
Q 2797 -91 1919 -91 
Q 1588 -91 1214 -16 
Q 841 59 441 206 
L 441 856 
Q 825 641 1194 531 
Q 1563 422 1919 422 
Q 2459 422 2753 634 
Q 3047 847 3047 1241 
Q 3047 1584 2836 1778 
Q 2625 1972 2144 2069 
L 1759 2144 
Q 1053 2284 737 2584 
Q 422 2884 422 3419 
Q 422 4038 858 4394 
Q 1294 4750 2059 4750 
Q 2388 4750 2728 4690 
Q 3069 4631 3425 4513 
z
" transform="scale(0.015625)"/>
       </defs>
       <use xlink:href="#DejaVuSans-36"/>
       <use xlink:href="#DejaVuSans-58" transform="translate(63.484375 0)"/>
       <use xlink:href="#DejaVuSans-53" transform="translate(126.859375 0)"/>
       <use xlink:href="#DejaVuSans-53" transform="translate(190.34375 0)"/>
       <use xlink:href="#DejaVuSans-55" transform="translate(253.828125 0)"/>
       <use xlink:href="#DejaVuSans-48" transform="translate(292.734375 0)"/>
       <use xlink:href="#DejaVuSans-56" transform="translate(354.265625 0)"/>
       <use xlink:href="#DejaVuSans-56" transform="translate(406.359375 0)"/>
       <use xlink:href="#DejaVuSans-48" transform="translate(458.453125 0)"/>
       <use xlink:href="#DejaVuSans-47" transform="translate(519.984375 0)"/>
      </g>
      <!-- (must not fire) -->
      <g style="fill: #e5e7eb" transform="translate(429.47872 326.378066) scale(0.11 -0.11)">
       <defs>
        <path id="DejaVuSans-51" d="M 3513 2113 
L 3513 0 
L 2938 0 
L 2938 2094 
Q 2938 2591 2744 2837 
Q 2550 3084 2163 3084 
Q 1697 3084 1428 2787 
Q 1159 2491 1159 1978 
L 1159 0 
L 581 0 
L 581 3500 
L 1159 3500 
L 1159 2956 
Q 1366 3272 1645 3428 
Q 1925 3584 2291 3584 
Q 2894 3584 3203 3211 
Q 3513 2838 3513 2113 
z
" transform="scale(0.015625)"/>
       </defs>
       <use xlink:href="#DejaVuSans-b"/>
       <use xlink:href="#DejaVuSans-50" transform="translate(39.015625 0)"/>
       <use xlink:href="#DejaVuSans-58" transform="translate(136.421875 0)"/>
       <use xlink:href="#DejaVuSans-56" transform="translate(199.796875 0)"/>
       <use xlink:href="#DejaVuSans-57" transform="translate(251.890625 0)"/>
       <use xlink:href="#DejaVuSans-3" transform="translate(291.09375 0)"/>
       <use xlink:href="#DejaVuSans-51" transform="translate(322.875 0)"/>
       <use xlink:href="#DejaVuSans-52" transform="translate(386.25 0)"/>
       <use xlink:href="#DejaVuSans-57" transform="translate(447.4375 0)"/>
       <use xlink:href="#DejaVuSans-3" transform="translate(486.640625 0)"/>
       <use xlink:href="#DejaVuSans-13af" transform="translate(518.421875 0)"/>
       <use xlink:href="#DejaVuSans-55" transform="translate(581.40625 0)"/>
       <use xlink:href="#DejaVuSans-48" transform="translate(620.3125 0)"/>
       <use xlink:href="#DejaVuSans-c" transform="translate(681.84375 0)"/>
      </g>
     </g>
    </g>
   </g>
   <g id="matplotlib.axis_2">
    <g id="ytick_1">
     <g id="line2d_7">
      <path d="M 46.694297 296.715703 
L 558.934297 296.715703 
" clip-path="url(#pe43a4bc8ef)" style="fill: none; stroke: #e5e7eb; stroke-width: 0.6; stroke-linecap: square"/>
     </g>
     <g id="line2d_8">
      <defs>
       <path id="m85e08bfe22" d="M 0 0 
L -3.5 0 
" style="stroke: #e5e7eb; stroke-width: 0.8"/>
      </defs>
      <g>
       <use xlink:href="#m85e08bfe22" x="46.694297" y="296.715703" style="fill: #e5e7eb; stroke: #e5e7eb; stroke-width: 0.8"/>
      </g>
     </g>
     <g id="text_4">
      <!-- 0.0 -->
      <g style="fill: #e5e7eb" transform="translate(22.200859 300.894414) scale(0.11 -0.11)">
       <defs>
        <path id="DejaVuSans-13" d="M 2034 4250 
Q 1547 4250 1301 3770 
Q 1056 3291 1056 2328 
Q 1056 1369 1301 889 
Q 1547 409 2034 409 
Q 2525 409 2770 889 
Q 3016 1369 3016 2328 
Q 3016 3291 2770 3770 
Q 2525 4250 2034 4250 
z
M 2034 4750 
Q 2819 4750 3233 4129 
Q 3647 3509 3647 2328 
Q 3647 1150 3233 529 
Q 2819 -91 2034 -91 
Q 1250 -91 836 529 
Q 422 1150 422 2328 
Q 422 3509 836 4129 
Q 1250 4750 2034 4750 
z
" transform="scale(0.015625)"/>
        <path id="DejaVuSans-11" d="M 684 794 
L 1344 794 
L 1344 0 
L 684 0 
L 684 794 
z
" transform="scale(0.015625)"/>
       </defs>
       <use xlink:href="#DejaVuSans-13"/>
       <use xlink:href="#DejaVuSans-11" transform="translate(63.625 0)"/>
       <use xlink:href="#DejaVuSans-13" transform="translate(95.40625 0)"/>
      </g>
     </g>
    </g>
    <g id="ytick_2">
     <g id="line2d_9">
      <path d="M 46.694297 253.845336 
L 558.934297 253.845336 
" clip-path="url(#pe43a4bc8ef)" style="fill: none; stroke: #e5e7eb; stroke-width: 0.6; stroke-linecap: square"/>
     </g>
     <g id="line2d_10">
      <g>
       <use xlink:href="#m85e08bfe22" x="46.694297" y="253.845336" style="fill: #e5e7eb; stroke: #e5e7eb; stroke-width: 0.8"/>
      </g>
     </g>
     <g id="text_5">
      <!-- 0.2 -->
      <g style="fill: #e5e7eb" transform="translate(22.200859 258.024047) scale(0.11 -0.11)">
       <defs>
        <path id="DejaVuSans-15" d="M 1228 531 
L 3431 531 
L 3431 0 
L 469 0 
L 469 531 
Q 828 903 1448 1529 
Q 2069 2156 2228 2338 
Q 2531 2678 2651 2914 
Q 2772 3150 2772 3378 
Q 2772 3750 2511 3984 
Q 2250 4219 1831 4219 
Q 1534 4219 1204 4116 
Q 875 4013 500 3803 
L 500 4441 
Q 881 4594 1212 4672 
Q 1544 4750 1819 4750 
Q 2544 4750 2975 4387 
Q 3406 4025 3406 3419 
Q 3406 3131 3298 2873 
Q 3191 2616 2906 2266 
Q 2828 2175 2409 1742 
Q 1991 1309 1228 531 
z
" transform="scale(0.015625)"/>
       </defs>
       <use xlink:href="#DejaVuSans-13"/>
       <use xlink:href="#DejaVuSans-11" transform="translate(63.625 0)"/>
       <use xlink:href="#DejaVuSans-15" transform="translate(95.40625 0)"/>
      </g>
     </g>
    </g>
    <g id="ytick_3">
     <g id="line2d_11">
      <path d="M 46.694297 210.974969 
L 558.934297 210.974969 
" clip-path="url(#pe43a4bc8ef)" style="fill: none; stroke: #e5e7eb; stroke-width: 0.6; stroke-linecap: square"/>
     </g>
     <g id="line2d_12">
      <g>
       <use xlink:href="#m85e08bfe22" x="46.694297" y="210.974969" style="fill: #e5e7eb; stroke: #e5e7eb; stroke-width: 0.8"/>
      </g>
     </g>
     <g id="text_6">
      <!-- 0.4 -->
      <g style="fill: #e5e7eb" transform="translate(22.200859 215.15368) scale(0.11 -0.11)">
       <defs>
        <path id="DejaVuSans-17" d="M 2419 4116 
L 825 1625 
L 2419 1625 
L 2419 4116 
z
M 2253 4666 
L 3047 4666 
L 3047 1625 
L 3713 1625 
L 3713 1100 
L 3047 1100 
L 3047 0 
L 2419 0 
L 2419 1100 
L 313 1100 
L 313 1709 
L 2253 4666 
z
" transform="scale(0.015625)"/>
       </defs>
       <use xlink:href="#DejaVuSans-13"/>
       <use xlink:href="#DejaVuSans-11" transform="translate(63.625 0)"/>
       <use xlink:href="#DejaVuSans-17" transform="translate(95.40625 0)"/>
      </g>
     </g>
    </g>
    <g id="ytick_4">
     <g id="line2d_13">
      <path d="M 46.694297 168.104603 
L 558.934297 168.104603 
" clip-path="url(#pe43a4bc8ef)" style="fill: none; stroke: #e5e7eb; stroke-width: 0.6; stroke-linecap: square"/>
     </g>
     <g id="line2d_14">
      <g>
       <use xlink:href="#m85e08bfe22" x="46.694297" y="168.104603" style="fill: #e5e7eb; stroke: #e5e7eb; stroke-width: 0.8"/>
      </g>
     </g>
     <g id="text_7">
      <!-- 0.6 -->
      <g style="fill: #e5e7eb" transform="translate(22.200859 172.283314) scale(0.11 -0.11)">
       <defs>
        <path id="DejaVuSans-19" d="M 2113 2584 
Q 1688 2584 1439 2293 
Q 1191 2003 1191 1497 
Q 1191 994 1439 701 
Q 1688 409 2113 409 
Q 2538 409 2786 701 
Q 3034 994 3034 1497 
Q 3034 2003 2786 2293 
Q 2538 2584 2113 2584 
z
M 3366 4563 
L 3366 3988 
Q 3128 4100 2886 4159 
Q 2644 4219 2406 4219 
Q 1781 4219 1451 3797 
Q 1122 3375 1075 2522 
Q 1259 2794 1537 2939 
Q 1816 3084 2150 3084 
Q 2853 3084 3261 2657 
Q 3669 2231 3669 1497 
Q 3669 778 3244 343 
Q 2819 -91 2113 -91 
Q 1303 -91 875 529 
Q 447 1150 447 2328 
Q 447 3434 972 4092 
Q 1497 4750 2381 4750 
Q 2619 4750 2861 4703 
Q 3103 4656 3366 4563 
z
" transform="scale(0.015625)"/>
       </defs>
       <use xlink:href="#DejaVuSans-13"/>
       <use xlink:href="#DejaVuSans-11" transform="translate(63.625 0)"/>
       <use xlink:href="#DejaVuSans-19" transform="translate(95.40625 0)"/>
      </g>
     </g>
    </g>
    <g id="ytick_5">
     <g id="line2d_15">
      <path d="M 46.694297 125.234236 
L 558.934297 125.234236 
" clip-path="url(#pe43a4bc8ef)" style="fill: none; stroke: #e5e7eb; stroke-width: 0.6; stroke-linecap: square"/>
     </g>
     <g id="line2d_16">
      <g>
       <use xlink:href="#m85e08bfe22" x="46.694297" y="125.234236" style="fill: #e5e7eb; stroke: #e5e7eb; stroke-width: 0.8"/>
      </g>
     </g>
     <g id="text_8">
      <!-- 0.8 -->
      <g style="fill: #e5e7eb" transform="translate(22.200859 129.412947) scale(0.11 -0.11)">
       <defs>
        <path id="DejaVuSans-1b" d="M 2034 2216 
Q 1584 2216 1326 1975 
Q 1069 1734 1069 1313 
Q 1069 891 1326 650 
Q 1584 409 2034 409 
Q 2484 409 2743 651 
Q 3003 894 3003 1313 
Q 3003 1734 2745 1975 
Q 2488 2216 2034 2216 
z
M 1403 2484 
Q 997 2584 770 2862 
Q 544 3141 544 3541 
Q 544 4100 942 4425 
Q 1341 4750 2034 4750 
Q 2731 4750 3128 4425 
Q 3525 4100 3525 3541 
Q 3525 3141 3298 2862 
Q 3072 2584 2669 2484 
Q 3125 2378 3379 2068 
Q 3634 1759 3634 1313 
Q 3634 634 3220 271 
Q 2806 -91 2034 -91 
Q 1263 -91 848 271 
Q 434 634 434 1313 
Q 434 1759 690 2068 
Q 947 2378 1403 2484 
z
M 1172 3481 
Q 1172 3119 1398 2916 
Q 1625 2713 2034 2713 
Q 2441 2713 2670 2916 
Q 2900 3119 2900 3481 
Q 2900 3844 2670 4047 
Q 2441 4250 2034 4250 
Q 1625 4250 1398 4047 
Q 1172 3844 1172 3481 
z
" transform="scale(0.015625)"/>
       </defs>
       <use xlink:href="#DejaVuSans-13"/>
       <use xlink:href="#DejaVuSans-11" transform="translate(63.625 0)"/>
       <use xlink:href="#DejaVuSans-1b" transform="translate(95.40625 0)"/>
      </g>
     </g>
    </g>
    <g id="ytick_6">
     <g id="line2d_17">
      <path d="M 46.694297 82.363869 
L 558.934297 82.363869 
" clip-path="url(#pe43a4bc8ef)" style="fill: none; stroke: #e5e7eb; stroke-width: 0.6; stroke-linecap: square"/>
     </g>
     <g id="line2d_18">
      <g>
       <use xlink:href="#m85e08bfe22" x="46.694297" y="82.363869" style="fill: #e5e7eb; stroke: #e5e7eb; stroke-width: 0.8"/>
      </g>
     </g>
     <g id="text_9">
      <!-- 1.0 -->
      <g style="fill: #e5e7eb" transform="translate(22.200859 86.54258) scale(0.11 -0.11)">
       <defs>
        <path id="DejaVuSans-14" d="M 794 531 
L 1825 531 
L 1825 4091 
L 703 3866 
L 703 4441 
L 1819 4666 
L 2450 4666 
L 2450 531 
L 3481 531 
L 3481 0 
L 794 0 
L 794 531 
z
" transform="scale(0.015625)"/>
       </defs>
       <use xlink:href="#DejaVuSans-14"/>
       <use xlink:href="#DejaVuSans-11" transform="translate(63.625 0)"/>
       <use xlink:href="#DejaVuSans-13" transform="translate(95.40625 0)"/>
      </g>
     </g>
    </g>
    <g id="text_10">
     <!-- Share matching the documented expectation -->
     <g style="fill: #e5e7eb" transform="translate(15.558281 298.383008) rotate(-90) scale(0.11 -0.11)">
      <defs>
       <path id="DejaVuSans-4a" d="M 2906 1791 
Q 2906 2416 2648 2759 
Q 2391 3103 1925 3103 
Q 1463 3103 1205 2759 
Q 947 2416 947 1791 
Q 947 1169 1205 825 
Q 1463 481 1925 481 
Q 2391 481 2648 825 
Q 2906 1169 2906 1791 
z
M 3481 434 
Q 3481 -459 3084 -895 
Q 2688 -1331 1869 -1331 
Q 1566 -1331 1297 -1286 
Q 1028 -1241 775 -1147 
L 775 -588 
Q 1028 -725 1275 -790 
Q 1522 -856 1778 -856 
Q 2344 -856 2625 -561 
Q 2906 -266 2906 331 
L 2906 616 
Q 2728 306 2450 153 
Q 2172 0 1784 0 
Q 1141 0 747 490 
Q 353 981 353 1791 
Q 353 2603 747 3093 
Q 1141 3584 1784 3584 
Q 2172 3584 2450 3431 
Q 2728 3278 2906 2969 
L 2906 3500 
L 3481 3500 
L 3481 434 
z
" transform="scale(0.015625)"/>
      </defs>
      <use xlink:href="#DejaVuSans-36"/>
      <use xlink:href="#DejaVuSans-4b" transform="translate(63.484375 0)"/>
      <use xlink:href="#DejaVuSans-44" transform="translate(126.859375 0)"/>
      <use xlink:href="#DejaVuSans-55" transform="translate(188.140625 0)"/>
      <use xlink:href="#DejaVuSans-48" transform="translate(227.046875 0)"/>
      <use xlink:href="#DejaVuSans-3" transform="translate(288.578125 0)"/>
      <use xlink:href="#DejaVuSans-50" transform="translate(320.359375 0)"/>
      <use xlink:href="#DejaVuSans-44" transform="translate(417.765625 0)"/>
      <use xlink:href="#DejaVuSans-57" transform="translate(479.046875 0)"/>
      <use xlink:href="#DejaVuSans-46" transform="translate(518.25 0)"/>
      <use xlink:href="#DejaVuSans-4b" transform="translate(573.234375 0)"/>
      <use xlink:href="#DejaVuSans-4c" transform="translate(636.609375 0)"/>
      <use xlink:href="#DejaVuSans-51" transform="translate(664.390625 0)"/>
      <use xlink:href="#DejaVuSans-4a" transform="translate(727.765625 0)"/>
      <use xlink:href="#DejaVuSans-3" transform="translate(791.25 0)"/>
      <use xlink:href="#DejaVuSans-57" transform="translate(823.03125 0)"/>
      <use xlink:href="#DejaVuSans-4b" transform="translate(862.234375 0)"/>
      <use xlink:href="#DejaVuSans-48" transform="translate(925.609375 0)"/>
      <use xlink:href="#DejaVuSans-3" transform="translate(987.140625 0)"/>
      <use xlink:href="#DejaVuSans-47" transform="translate(1018.921875 0)"/>
      <use xlink:href="#DejaVuSans-52" transform="translate(1082.40625 0)"/>
      <use xlink:href="#DejaVuSans-46" transform="translate(1143.59375 0)"/>
      <use xlink:href="#DejaVuSans-58" transform="translate(1198.578125 0)"/>
      <use xlink:href="#DejaVuSans-50" transform="translate(1261.953125 0)"/>
      <use xlink:href="#DejaVuSans-48" transform="translate(1359.359375 0)"/>
      <use xlink:href="#DejaVuSans-51" transform="translate(1420.890625 0)"/>
      <use xlink:href="#DejaVuSans-57" transform="translate(1484.265625 0)"/>
      <use xlink:href="#DejaVuSans-48" transform="translate(1523.46875 0)"/>
      <use xlink:href="#DejaVuSans-47" transform="translate(1585 0)"/>
      <use xlink:href="#DejaVuSans-3" transform="translate(1648.484375 0)"/>
      <use xlink:href="#DejaVuSans-48" transform="translate(1680.265625 0)"/>
      <use xlink:href="#DejaVuSans-5b" transform="translate(1740.046875 0)"/>
      <use xlink:href="#DejaVuSans-53" transform="translate(1799.234375 0)"/>
      <use xlink:href="#DejaVuSans-48" transform="translate(1862.71875 0)"/>
      <use xlink:href="#DejaVuSans-46" transform="translate(1924.25 0)"/>
      <use xlink:href="#DejaVuSans-57" transform="translate(1979.234375 0)"/>
      <use xlink:href="#DejaVuSans-44" transform="translate(2018.4375 0)"/>
      <use xlink:href="#DejaVuSans-57" transform="translate(2079.71875 0)"/>
      <use xlink:href="#DejaVuSans-4c" transform="translate(2118.921875 0)"/>
      <use xlink:href="#DejaVuSans-52" transform="translate(2146.703125 0)"/>
      <use xlink:href="#DejaVuSans-51" transform="translate(2207.890625 0)"/>
     </g>
    </g>
   </g>
   <g id="patch_6">
    <path d="M 46.694297 296.715703 
L 46.694297 50.211094 
" style="fill: none; stroke: #e5e7eb; stroke-width: 0.8; stroke-linejoin: miter; stroke-linecap: square"/>
   </g>
   <g id="patch_7">
    <path d="M 46.694297 296.715703 
L 558.934297 296.715703 
" style="fill: none; stroke: #e5e7eb; stroke-width: 0.8; stroke-linejoin: miter; stroke-linecap: square"/>
   </g>
   <g id="text_11">
    <!--  8/8 -->
    <g transform="translate(126.866671 79.961525) scale(0.1 -0.1)">
     <defs>
      <path id="DejaVuSans-12" d="M 1625 4666 
L 2156 4666 
L 531 -594 
L 0 -594 
L 1625 4666 
z
" transform="scale(0.015625)"/>
     </defs>
     <use xlink:href="#DejaVuSans-3"/>
     <use xlink:href="#DejaVuSans-1b" transform="translate(31.78125 0)"/>
     <use xlink:href="#DejaVuSans-12" transform="translate(95.40625 0)"/>
     <use xlink:href="#DejaVuSans-1b" transform="translate(129.09375 0)"/>
    </g>
   </g>
   <g id="text_12">
    <!--  3/3 -->
    <g transform="translate(293.178359 79.961525) scale(0.1 -0.1)">
     <defs>
      <path id="DejaVuSans-16" d="M 2597 2516 
Q 3050 2419 3304 2112 
Q 3559 1806 3559 1356 
Q 3559 666 3084 287 
Q 2609 -91 1734 -91 
Q 1441 -91 1130 -33 
Q 819 25 488 141 
L 488 750 
Q 750 597 1062 519 
Q 1375 441 1716 441 
Q 2309 441 2620 675 
Q 2931 909 2931 1356 
Q 2931 1769 2642 2001 
Q 2353 2234 1838 2234 
L 1294 2234 
L 1294 2753 
L 1863 2753 
Q 2328 2753 2575 2939 
Q 2822 3125 2822 3475 
Q 2822 3834 2567 4026 
Q 2313 4219 1838 4219 
Q 1578 4219 1281 4162 
Q 984 4106 628 3988 
L 628 4550 
Q 988 4650 1302 4700 
Q 1616 4750 1894 4750 
Q 2613 4750 3031 4423 
Q 3450 4097 3450 3541 
Q 3450 3153 3228 2886 
Q 3006 2619 2597 2516 
z
" transform="scale(0.015625)"/>
     </defs>
     <use xlink:href="#DejaVuSans-3"/>
     <use xlink:href="#DejaVuSans-16" transform="translate(31.78125 0)"/>
     <use xlink:href="#DejaVuSans-12" transform="translate(95.40625 0)"/>
     <use xlink:href="#DejaVuSans-16" transform="translate(129.09375 0)"/>
    </g>
   </g>
   <g id="text_13">
    <!--  4/4 -->
    <g transform="translate(459.490048 79.961525) scale(0.1 -0.1)">
     <use xlink:href="#DejaVuSans-3"/>
     <use xlink:href="#DejaVuSans-17" transform="translate(31.78125 0)"/>
     <use xlink:href="#DejaVuSans-12" transform="translate(95.40625 0)"/>
     <use xlink:href="#DejaVuSans-17" transform="translate(129.09375 0)"/>
    </g>
   </g>
   <g id="text_14">
    <!-- Deterministic screen vs. the committed probe set (n=15 probes, fixed, not a live-model sample) -->
    <g style="fill: #e5e7eb" transform="translate(58.67875 44.211094) scale(0.09 -0.09)">
     <defs>
      <path id="DejaVuSans-Bold-27" d="M 1791 3756 
L 1791 909 
L 2222 909 
Q 2959 909 3348 1275 
Q 3738 1641 3738 2338 
Q 3738 3031 3350 3393 
Q 2963 3756 2222 3756 
L 1791 3756 
z
M 588 4666 
L 1856 4666 
Q 2919 4666 3439 4514 
Q 3959 4363 4331 4000 
Q 4659 3684 4818 3271 
Q 4978 2859 4978 2338 
Q 4978 1809 4818 1395 
Q 4659 981 4331 666 
Q 3956 303 3431 151 
Q 2906 0 1856 0 
L 588 0 
L 588 4666 
z
" transform="scale(0.015625)"/>
      <path id="DejaVuSans-Bold-48" d="M 4031 1759 
L 4031 1441 
L 1416 1441 
Q 1456 1047 1700 850 
Q 1944 653 2381 653 
Q 2734 653 3104 758 
Q 3475 863 3866 1075 
L 3866 213 
Q 3469 63 3072 -14 
Q 2675 -91 2278 -91 
Q 1328 -91 801 392 
Q 275 875 275 1747 
Q 275 2603 792 3093 
Q 1309 3584 2216 3584 
Q 3041 3584 3536 3087 
Q 4031 2591 4031 1759 
z
M 2881 2131 
Q 2881 2450 2695 2645 
Q 2509 2841 2209 2841 
Q 1884 2841 1681 2658 
Q 1478 2475 1428 2131 
L 2881 2131 
z
" transform="scale(0.015625)"/>
      <path id="DejaVuSans-Bold-57" d="M 1759 4494 
L 1759 3500 
L 2913 3500 
L 2913 2700 
L 1759 2700 
L 1759 1216 
Q 1759 972 1856 886 
Q 1953 800 2241 800 
L 2816 800 
L 2816 0 
L 1856 0 
Q 1194 0 917 276 
Q 641 553 641 1216 
L 641 2700 
L 84 2700 
L 84 3500 
L 641 3500 
L 641 4494 
L 1759 4494 
z
" transform="scale(0.015625)"/>
      <path id="DejaVuSans-Bold-55" d="M 3138 2547 
Q 2991 2616 2845 2648 
Q 2700 2681 2553 2681 
Q 2122 2681 1889 2404 
Q 1656 2128 1656 1613 
L 1656 0 
L 538 0 
L 538 3500 
L 1656 3500 
L 1656 2925 
Q 1872 3269 2151 3426 
Q 2431 3584 2822 3584 
Q 2878 3584 2943 3579 
Q 3009 3575 3134 3559 
L 3138 2547 
z
" transform="scale(0.015625)"/>
      <path id="DejaVuSans-Bold-50" d="M 3781 2919 
Q 3994 3244 4286 3414 
Q 4578 3584 4928 3584 
Q 5531 3584 5847 3212 
Q 6163 2841 6163 2131 
L 6163 0 
L 5038 0 
L 5038 1825 
Q 5041 1866 5042 1909 
Q 5044 1953 5044 2034 
Q 5044 2406 4934 2573 
Q 4825 2741 4581 2741 
Q 4263 2741 4089 2478 
Q 3916 2216 3909 1719 
L 3909 0 
L 2784 0 
L 2784 1825 
Q 2784 2406 2684 2573 
Q 2584 2741 2328 2741 
Q 2006 2741 1831 2477 
Q 1656 2213 1656 1722 
L 1656 0 
L 531 0 
L 531 3500 
L 1656 3500 
L 1656 2988 
Q 1863 3284 2130 3434 
Q 2397 3584 2719 3584 
Q 3081 3584 3359 3409 
Q 3638 3234 3781 2919 
z
" transform="scale(0.015625)"/>
      <path id="DejaVuSans-Bold-4c" d="M 538 3500 
L 1656 3500 
L 1656 0 
L 538 0 
L 538 3500 
z
M 538 4863 
L 1656 4863 
L 1656 3950 
L 538 3950 
L 538 4863 
z
" transform="scale(0.015625)"/>
      <path id="DejaVuSans-Bold-51" d="M 4056 2131 
L 4056 0 
L 2931 0 
L 2931 347 
L 2931 1631 
Q 2931 2084 2911 2256 
Q 2891 2428 2841 2509 
Q 2775 2619 2662 2680 
Q 2550 2741 2406 2741 
Q 2056 2741 1856 2470 
Q 1656 2200 1656 1722 
L 1656 0 
L 538 0 
L 538 3500 
L 1656 3500 
L 1656 2988 
Q 1909 3294 2193 3439 
Q 2478 3584 2822 3584 
Q 3428 3584 3742 3212 
Q 4056 2841 4056 2131 
z
" transform="scale(0.015625)"/>
      <path id="DejaVuSans-Bold-56" d="M 3272 3391 
L 3272 2541 
Q 2913 2691 2578 2766 
Q 2244 2841 1947 2841 
Q 1628 2841 1473 2761 
Q 1319 2681 1319 2516 
Q 1319 2381 1436 2309 
Q 1553 2238 1856 2203 
L 2053 2175 
Q 2913 2066 3209 1816 
Q 3506 1566 3506 1031 
Q 3506 472 3093 190 
Q 2681 -91 1863 -91 
Q 1516 -91 1145 -36 
Q 775 19 384 128 
L 384 978 
Q 719 816 1070 734 
Q 1422 653 1784 653 
Q 2113 653 2278 743 
Q 2444 834 2444 1013 
Q 2444 1163 2330 1236 
Q 2216 1309 1875 1350 
L 1678 1375 
Q 931 1469 631 1722 
Q 331 1975 331 2491 
Q 331 3047 712 3315 
Q 1094 3584 1881 3584 
Q 2191 3584 2531 3537 
Q 2872 3491 3272 3391 
z
" transform="scale(0.015625)"/>
      <path id="DejaVuSans-Bold-46" d="M 3366 3391 
L 3366 2478 
Q 3138 2634 2908 2709 
Q 2678 2784 2431 2784 
Q 1963 2784 1702 2511 
Q 1441 2238 1441 1747 
Q 1441 1256 1702 982 
Q 1963 709 2431 709 
Q 2694 709 2930 787 
Q 3166 866 3366 1019 
L 3366 103 
Q 3103 6 2833 -42 
Q 2563 -91 2291 -91 
Q 1344 -91 809 395 
Q 275 881 275 1747 
Q 275 2613 809 3098 
Q 1344 3584 2291 3584 
Q 2566 3584 2833 3536 
Q 3100 3488 3366 3391 
z
" transform="scale(0.015625)"/>
      <path id="DejaVuSans-Bold-3" transform="scale(0.015625)"/>
      <path id="DejaVuSans-Bold-59" d="M 97 3500 
L 1216 3500 
L 2088 1081 
L 2956 3500 
L 4078 3500 
L 2700 0 
L 1472 0 
L 97 3500 
z
" transform="scale(0.015625)"/>
      <path id="DejaVuSans-Bold-11" d="M 653 1209 
L 1778 1209 
L 1778 0 
L 653 0 
L 653 1209 
z
" transform="scale(0.015625)"/>
      <path id="DejaVuSans-Bold-4b" d="M 4056 2131 
L 4056 0 
L 2931 0 
L 2931 347 
L 2931 1625 
Q 2931 2084 2911 2256 
Q 2891 2428 2841 2509 
Q 2775 2619 2662 2680 
Q 2550 2741 2406 2741 
Q 2056 2741 1856 2470 
Q 1656 2200 1656 1722 
L 1656 0 
L 538 0 
L 538 4863 
L 1656 4863 
L 1656 2988 
Q 1909 3294 2193 3439 
Q 2478 3584 2822 3584 
Q 3428 3584 3742 3212 
Q 4056 2841 4056 2131 
z
" transform="scale(0.015625)"/>
      <path id="DejaVuSans-Bold-52" d="M 2203 2784 
Q 1831 2784 1636 2517 
Q 1441 2250 1441 1747 
Q 1441 1244 1636 976 
Q 1831 709 2203 709 
Q 2569 709 2762 976 
Q 2956 1244 2956 1747 
Q 2956 2250 2762 2517 
Q 2569 2784 2203 2784 
z
M 2203 3584 
Q 3106 3584 3614 3096 
Q 4122 2609 4122 1747 
Q 4122 884 3614 396 
Q 3106 -91 2203 -91 
Q 1297 -91 786 396 
Q 275 884 275 1747 
Q 275 2609 786 3096 
Q 1297 3584 2203 3584 
z
" transform="scale(0.015625)"/>
      <path id="DejaVuSans-Bold-47" d="M 2919 2988 
L 2919 4863 
L 4044 4863 
L 4044 0 
L 2919 0 
L 2919 506 
Q 2688 197 2409 53 
Q 2131 -91 1766 -91 
Q 1119 -91 703 423 
Q 288 938 288 1747 
Q 288 2556 703 3070 
Q 1119 3584 1766 3584 
Q 2128 3584 2408 3439 
Q 2688 3294 2919 2988 
z
M 2181 722 
Q 2541 722 2730 984 
Q 2919 1247 2919 1747 
Q 2919 2247 2730 2509 
Q 2541 2772 2181 2772 
Q 1825 2772 1636 2509 
Q 1447 2247 1447 1747 
Q 1447 1247 1636 984 
Q 1825 722 2181 722 
z
" transform="scale(0.015625)"/>
      <path id="DejaVuSans-Bold-53" d="M 1656 506 
L 1656 -1331 
L 538 -1331 
L 538 3500 
L 1656 3500 
L 1656 2988 
Q 1888 3294 2169 3439 
Q 2450 3584 2816 3584 
Q 3463 3584 3878 3070 
Q 4294 2556 4294 1747 
Q 4294 938 3878 423 
Q 3463 -91 2816 -91 
Q 2450 -91 2169 54 
Q 1888 200 1656 506 
z
M 2400 2772 
Q 2041 2772 1848 2508 
Q 1656 2244 1656 1747 
Q 1656 1250 1848 986 
Q 2041 722 2400 722 
Q 2759 722 2948 984 
Q 3138 1247 3138 1747 
Q 3138 2247 2948 2509 
Q 2759 2772 2400 2772 
z
" transform="scale(0.015625)"/>
      <path id="DejaVuSans-Bold-45" d="M 2400 722 
Q 2759 722 2948 984 
Q 3138 1247 3138 1747 
Q 3138 2247 2948 2509 
Q 2759 2772 2400 2772 
Q 2041 2772 1848 2508 
Q 1656 2244 1656 1747 
Q 1656 1250 1848 986 
Q 2041 722 2400 722 
z
M 1656 2988 
Q 1888 3294 2169 3439 
Q 2450 3584 2816 3584 
Q 3463 3584 3878 3070 
Q 4294 2556 4294 1747 
Q 4294 938 3878 423 
Q 3463 -91 2816 -91 
Q 2450 -91 2169 54 
Q 1888 200 1656 506 
L 1656 0 
L 538 0 
L 538 4863 
L 1656 4863 
L 1656 2988 
z
" transform="scale(0.015625)"/>
      <path id="DejaVuSans-Bold-b" d="M 2413 -844 
L 1484 -844 
Q 1006 -72 778 623 
Q 550 1319 550 2003 
Q 550 2688 779 3389 
Q 1009 4091 1484 4856 
L 2413 4856 
Q 2013 4116 1813 3408 
Q 1613 2700 1613 2009 
Q 1613 1319 1811 609 
Q 2009 -100 2413 -844 
z
" transform="scale(0.015625)"/>
      <path id="DejaVuSans-Bold-20" d="M 678 3084 
L 4684 3084 
L 4684 2350 
L 678 2350 
L 678 3084 
z
M 678 1663 
L 4684 1663 
L 4684 922 
L 678 922 
L 678 1663 
z
" transform="scale(0.015625)"/>
      <path id="DejaVuSans-Bold-14" d="M 750 831 
L 1813 831 
L 1813 3847 
L 722 3622 
L 722 4441 
L 1806 4666 
L 2950 4666 
L 2950 831 
L 4013 831 
L 4013 0 
L 750 0 
L 750 831 
z
" transform="scale(0.015625)"/>
      <path id="DejaVuSans-Bold-18" d="M 678 4666 
L 3669 4666 
L 3669 3781 
L 1638 3781 
L 1638 3059 
Q 1775 3097 1914 3117 
Q 2053 3138 2203 3138 
Q 3056 3138 3531 2711 
Q 4006 2284 4006 1522 
Q 4006 766 3489 337 
Q 2972 -91 2053 -91 
Q 1656 -91 1267 -14 
Q 878 63 494 219 
L 494 1166 
Q 875 947 1217 837 
Q 1559 728 1863 728 
Q 2300 728 2551 942 
Q 2803 1156 2803 1522 
Q 2803 1891 2551 2103 
Q 2300 2316 1863 2316 
Q 1603 2316 1309 2248 
Q 1016 2181 678 2041 
L 678 4666 
z
" transform="scale(0.015625)"/>
      <path id="DejaVuSans-Bold-f" d="M 653 1209 
L 1778 1209 
L 1778 256 
L 1006 -909 
L 341 -909 
L 653 256 
L 653 1209 
z
" transform="scale(0.015625)"/>
      <path id="DejaVuSans-Bold-13ab" d="M 3078 4863 
L 4206 4863 
L 4206 3950 
L 3078 3950 
L 3078 4863 
z
M 2847 4863 
L 2847 4128 
L 2228 4128 
Q 1994 4128 1903 4042 
Q 1813 3956 1813 3744 
L 1813 3500 
L 4206 3500 
L 4206 0 
L 3078 0 
L 3078 2700 
L 1813 2700 
L 1813 0 
L 684 0 
L 684 2700 
L 134 2700 
L 134 3500 
L 684 3500 
L 684 3744 
Q 684 4316 1003 4589 
Q 1322 4863 1991 4863 
L 2847 4863 
z
" transform="scale(0.015625)"/>
      <path id="DejaVuSans-Bold-5b" d="M 1422 1791 
L 159 3500 
L 1344 3500 
L 2059 2463 
L 2784 3500 
L 3969 3500 
L 2706 1797 
L 4031 0 
L 2847 0 
L 2059 1106 
L 1281 0 
L 97 0 
L 1422 1791 
z
" transform="scale(0.015625)"/>
      <path id="DejaVuSans-Bold-44" d="M 2106 1575 
Q 1756 1575 1579 1456 
Q 1403 1338 1403 1106 
Q 1403 894 1545 773 
Q 1688 653 1941 653 
Q 2256 653 2472 879 
Q 2688 1106 2688 1447 
L 2688 1575 
L 2106 1575 
z
M 3816 1997 
L 3816 0 
L 2688 0 
L 2688 519 
Q 2463 200 2181 54 
Q 1900 -91 1497 -91 
Q 953 -91 614 226 
Q 275 544 275 1050 
Q 275 1666 698 1953 
Q 1122 2241 2028 2241 
L 2688 2241 
L 2688 2328 
Q 2688 2594 2478 2717 
Q 2269 2841 1825 2841 
Q 1466 2841 1156 2769 
Q 847 2697 581 2553 
L 581 3406 
Q 941 3494 1303 3539 
Q 1666 3584 2028 3584 
Q 2975 3584 3395 3211 
Q 3816 2838 3816 1997 
z
" transform="scale(0.015625)"/>
      <path id="DejaVuSans-Bold-4f" d="M 538 4863 
L 1656 4863 
L 1656 0 
L 538 0 
L 538 4863 
z
" transform="scale(0.015625)"/>
      <path id="DejaVuSans-Bold-10" d="M 347 2297 
L 2309 2297 
L 2309 1388 
L 347 1388 
L 347 2297 
z
" transform="scale(0.015625)"/>
      <path id="DejaVuSans-Bold-c" d="M 513 -844 
Q 913 -100 1113 609 
Q 1313 1319 1313 2009 
Q 1313 2700 1113 3408 
Q 913 4116 513 4856 
L 1441 4856 
Q 1916 4091 2145 3389 
Q 2375 2688 2375 2003 
Q 2375 1319 2147 623 
Q 1919 -72 1441 -844 
L 513 -844 
z
" transform="scale(0.015625)"/>
     </defs>
     <use xlink:href="#DejaVuSans-Bold-27"/>
     <use xlink:href="#DejaVuSans-Bold-48" transform="translate(83.015625 0)"/>
     <use xlink:href="#DejaVuSans-Bold-57" transform="translate(150.84375 0)"/>
     <use xlink:href="#DejaVuSans-Bold-48" transform="translate(198.640625 0)"/>
     <use xlink:href="#DejaVuSans-Bold-55" transform="translate(266.46875 0)"/>
     <use xlink:href="#DejaVuSans-Bold-50" transform="translate(315.78125 0)"/>
     <use xlink:href="#DejaVuSans-Bold-4c" transform="translate(419.984375 0)"/>
     <use xlink:href="#DejaVuSans-Bold-51" transform="translate(454.265625 0)"/>
     <use xlink:href="#DejaVuSans-Bold-4c" transform="translate(525.453125 0)"/>
     <use xlink:href="#DejaVuSans-Bold-56" transform="translate(559.734375 0)"/>
     <use xlink:href="#DejaVuSans-Bold-57" transform="translate(619.25 0)"/>
     <use xlink:href="#DejaVuSans-Bold-4c" transform="translate(667.046875 0)"/>
     <use xlink:href="#DejaVuSans-Bold-46" transform="translate(701.328125 0)"/>
     <use xlink:href="#DejaVuSans-Bold-3" transform="translate(760.609375 0)"/>
     <use xlink:href="#DejaVuSans-Bold-56" transform="translate(795.421875 0)"/>
     <use xlink:href="#DejaVuSans-Bold-46" transform="translate(854.9375 0)"/>
     <use xlink:href="#DejaVuSans-Bold-55" transform="translate(914.21875 0)"/>
     <use xlink:href="#DejaVuSans-Bold-48" transform="translate(963.53125 0)"/>
     <use xlink:href="#DejaVuSans-Bold-48" transform="translate(1031.359375 0)"/>
     <use xlink:href="#DejaVuSans-Bold-51" transform="translate(1099.1875 0)"/>
     <use xlink:href="#DejaVuSans-Bold-3" transform="translate(1170.375 0)"/>
     <use xlink:href="#DejaVuSans-Bold-59" transform="translate(1205.1875 0)"/>
     <use xlink:href="#DejaVuSans-Bold-56" transform="translate(1270.375 0)"/>
     <use xlink:href="#DejaVuSans-Bold-11" transform="translate(1329.890625 0)"/>
     <use xlink:href="#DejaVuSans-Bold-3" transform="translate(1367.875 0)"/>
     <use xlink:href="#DejaVuSans-Bold-57" transform="translate(1402.6875 0)"/>
     <use xlink:href="#DejaVuSans-Bold-4b" transform="translate(1450.484375 0)"/>
     <use xlink:href="#DejaVuSans-Bold-48" transform="translate(1521.671875 0)"/>
     <use xlink:href="#DejaVuSans-Bold-3" transform="translate(1589.5 0)"/>
     <use xlink:href="#DejaVuSans-Bold-46" transform="translate(1624.3125 0)"/>
     <use xlink:href="#DejaVuSans-Bold-52" transform="translate(1683.59375 0)"/>
     <use xlink:href="#DejaVuSans-Bold-50" transform="translate(1752.296875 0)"/>
     <use xlink:href="#DejaVuSans-Bold-50" transform="translate(1856.5 0)"/>
     <use xlink:href="#DejaVuSans-Bold-4c" transform="translate(1960.703125 0)"/>
     <use xlink:href="#DejaVuSans-Bold-57" transform="translate(1994.984375 0)"/>
     <use xlink:href="#DejaVuSans-Bold-57" transform="translate(2042.78125 0)"/>
     <use xlink:href="#DejaVuSans-Bold-48" transform="translate(2090.578125 0)"/>
     <use xlink:href="#DejaVuSans-Bold-47" transform="translate(2158.40625 0)"/>
     <use xlink:href="#DejaVuSans-Bold-3" transform="translate(2229.984375 0)"/>
     <use xlink:href="#DejaVuSans-Bold-53" transform="translate(2264.796875 0)"/>
     <use xlink:href="#DejaVuSans-Bold-55" transform="translate(2336.375 0)"/>
     <use xlink:href="#DejaVuSans-Bold-52" transform="translate(2385.6875 0)"/>
     <use xlink:href="#DejaVuSans-Bold-45" transform="translate(2454.390625 0)"/>
     <use xlink:href="#DejaVuSans-Bold-48" transform="translate(2525.96875 0)"/>
     <use xlink:href="#DejaVuSans-Bold-3" transform="translate(2593.796875 0)"/>
     <use xlink:href="#DejaVuSans-Bold-56" transform="translate(2628.609375 0)"/>
     <use xlink:href="#DejaVuSans-Bold-48" transform="translate(2688.125 0)"/>
     <use xlink:href="#DejaVuSans-Bold-57" transform="translate(2755.953125 0)"/>
     <use xlink:href="#DejaVuSans-Bold-3" transform="translate(2803.75 0)"/>
     <use xlink:href="#DejaVuSans-Bold-b" transform="translate(2838.5625 0)"/>
     <use xlink:href="#DejaVuSans-Bold-51" transform="translate(2884.265625 0)"/>
     <use xlink:href="#DejaVuSans-Bold-20" transform="translate(2955.453125 0)"/>
     <use xlink:href="#DejaVuSans-Bold-14" transform="translate(3039.25 0)"/>
     <use xlink:href="#DejaVuSans-Bold-18" transform="translate(3108.828125 0)"/>
     <use xlink:href="#DejaVuSans-Bold-3" transform="translate(3178.40625 0)"/>
     <use xlink:href="#DejaVuSans-Bold-53" transform="translate(3213.21875 0)"/>
     <use xlink:href="#DejaVuSans-Bold-55" transform="translate(3284.796875 0)"/>
     <use xlink:href="#DejaVuSans-Bold-52" transform="translate(3334.109375 0)"/>
     <use xlink:href="#DejaVuSans-Bold-45" transform="translate(3402.8125 0)"/>
     <use xlink:href="#DejaVuSans-Bold-48" transform="translate(3474.390625 0)"/>
     <use xlink:href="#DejaVuSans-Bold-56" transform="translate(3542.21875 0)"/>
     <use xlink:href="#DejaVuSans-Bold-f" transform="translate(3601.734375 0)"/>
     <use xlink:href="#DejaVuSans-Bold-3" transform="translate(3639.71875 0)"/>
     <use xlink:href="#DejaVuSans-Bold-13ab" transform="translate(3674.53125 0)"/>
     <use xlink:href="#DejaVuSans-Bold-5b" transform="translate(3748.65625 0)"/>
     <use xlink:href="#DejaVuSans-Bold-48" transform="translate(3813.15625 0)"/>
     <use xlink:href="#DejaVuSans-Bold-47" transform="translate(3880.984375 0)"/>
     <use xlink:href="#DejaVuSans-Bold-f" transform="translate(3952.5625 0)"/>
     <use xlink:href="#DejaVuSans-Bold-3" transform="translate(3990.546875 0)"/>
     <use xlink:href="#DejaVuSans-Bold-51" transform="translate(4025.359375 0)"/>
     <use xlink:href="#DejaVuSans-Bold-52" transform="translate(4096.546875 0)"/>
     <use xlink:href="#DejaVuSans-Bold-57" transform="translate(4165.25 0)"/>
     <use xlink:href="#DejaVuSans-Bold-3" transform="translate(4213.046875 0)"/>
     <use xlink:href="#DejaVuSans-Bold-44" transform="translate(4247.859375 0)"/>
     <use xlink:href="#DejaVuSans-Bold-3" transform="translate(4315.34375 0)"/>
     <use xlink:href="#DejaVuSans-Bold-4f" transform="translate(4350.15625 0)"/>
     <use xlink:href="#DejaVuSans-Bold-4c" transform="translate(4384.4375 0)"/>
     <use xlink:href="#DejaVuSans-Bold-59" transform="translate(4418.71875 0)"/>
     <use xlink:href="#DejaVuSans-Bold-48" transform="translate(4483.90625 0)"/>
     <use xlink:href="#DejaVuSans-Bold-10" transform="translate(4551.734375 0)"/>
     <use xlink:href="#DejaVuSans-Bold-50" transform="translate(4593.234375 0)"/>
     <use xlink:href="#DejaVuSans-Bold-52" transform="translate(4697.4375 0)"/>
     <use xlink:href="#DejaVuSans-Bold-47" transform="translate(4766.140625 0)"/>
     <use xlink:href="#DejaVuSans-Bold-48" transform="translate(4837.71875 0)"/>
     <use xlink:href="#DejaVuSans-Bold-4f" transform="translate(4905.546875 0)"/>
     <use xlink:href="#DejaVuSans-Bold-3" transform="translate(4939.828125 0)"/>
     <use xlink:href="#DejaVuSans-Bold-56" transform="translate(4974.640625 0)"/>
     <use xlink:href="#DejaVuSans-Bold-44" transform="translate(5034.15625 0)"/>
     <use xlink:href="#DejaVuSans-Bold-50" transform="translate(5101.640625 0)"/>
     <use xlink:href="#DejaVuSans-Bold-53" transform="translate(5205.84375 0)"/>
     <use xlink:href="#DejaVuSans-Bold-4f" transform="translate(5277.421875 0)"/>
     <use xlink:href="#DejaVuSans-Bold-48" transform="translate(5311.703125 0)"/>
     <use xlink:href="#DejaVuSans-Bold-c" transform="translate(5379.53125 0)"/>
    </g>
   </g>
  </g>
  <g id="text_15">
   <!-- Screen recall, and its two deliberate blind spots -->
   <g transform="translate(103.813016 17.229937) scale(0.132 -0.132)">
    <defs>
     <path id="DejaVuSans-Bold-36" d="M 3834 4519 
L 3834 3531 
Q 3450 3703 3084 3790 
Q 2719 3878 2394 3878 
Q 1963 3878 1756 3759 
Q 1550 3641 1550 3391 
Q 1550 3203 1689 3098 
Q 1828 2994 2194 2919 
L 2706 2816 
Q 3484 2659 3812 2340 
Q 4141 2022 4141 1434 
Q 4141 663 3683 286 
Q 3225 -91 2284 -91 
Q 1841 -91 1394 -6 
Q 947 78 500 244 
L 500 1259 
Q 947 1022 1364 901 
Q 1781 781 2169 781 
Q 2563 781 2772 912 
Q 2981 1044 2981 1288 
Q 2981 1506 2839 1625 
Q 2697 1744 2272 1838 
L 1806 1941 
Q 1106 2091 782 2419 
Q 459 2747 459 3303 
Q 459 4000 909 4375 
Q 1359 4750 2203 4750 
Q 2588 4750 2994 4692 
Q 3400 4634 3834 4519 
z
" transform="scale(0.015625)"/>
     <path id="DejaVuSans-Bold-5a" d="M 225 3500 
L 1313 3500 
L 1900 1088 
L 2491 3500 
L 3425 3500 
L 4013 1113 
L 4603 3500 
L 5691 3500 
L 4769 0 
L 3547 0 
L 2956 2406 
L 2369 0 
L 1147 0 
L 225 3500 
z
" transform="scale(0.015625)"/>
    </defs>
    <use xlink:href="#DejaVuSans-Bold-36"/>
    <use xlink:href="#DejaVuSans-Bold-46" transform="translate(72.015625 0)"/>
    <use xlink:href="#DejaVuSans-Bold-55" transform="translate(131.296875 0)"/>
    <use xlink:href="#DejaVuSans-Bold-48" transform="translate(180.609375 0)"/>
    <use xlink:href="#DejaVuSans-Bold-48" transform="translate(248.4375 0)"/>
    <use xlink:href="#DejaVuSans-Bold-51" transform="translate(316.265625 0)"/>
    <use xlink:href="#DejaVuSans-Bold-3" transform="translate(387.453125 0)"/>
    <use xlink:href="#DejaVuSans-Bold-55" transform="translate(422.265625 0)"/>
    <use xlink:href="#DejaVuSans-Bold-48" transform="translate(471.578125 0)"/>
    <use xlink:href="#DejaVuSans-Bold-46" transform="translate(539.40625 0)"/>
    <use xlink:href="#DejaVuSans-Bold-44" transform="translate(598.6875 0)"/>
    <use xlink:href="#DejaVuSans-Bold-4f" transform="translate(666.171875 0)"/>
    <use xlink:href="#DejaVuSans-Bold-4f" transform="translate(700.453125 0)"/>
    <use xlink:href="#DejaVuSans-Bold-f" transform="translate(734.734375 0)"/>
    <use xlink:href="#DejaVuSans-Bold-3" transform="translate(772.71875 0)"/>
    <use xlink:href="#DejaVuSans-Bold-44" transform="translate(807.53125 0)"/>
    <use xlink:href="#DejaVuSans-Bold-51" transform="translate(875.015625 0)"/>
    <use xlink:href="#DejaVuSans-Bold-47" transform="translate(946.203125 0)"/>
    <use xlink:href="#DejaVuSans-Bold-3" transform="translate(1017.78125 0)"/>
    <use xlink:href="#DejaVuSans-Bold-4c" transform="translate(1052.59375 0)"/>
    <use xlink:href="#DejaVuSans-Bold-57" transform="translate(1086.875 0)"/>
    <use xlink:href="#DejaVuSans-Bold-56" transform="translate(1134.671875 0)"/>
    <use xlink:href="#DejaVuSans-Bold-3" transform="translate(1194.1875 0)"/>
    <use xlink:href="#DejaVuSans-Bold-57" transform="translate(1229 0)"/>
    <use xlink:href="#DejaVuSans-Bold-5a" transform="translate(1276.796875 0)"/>
    <use xlink:href="#DejaVuSans-Bold-52" transform="translate(1369.1875 0)"/>
    <use xlink:href="#DejaVuSans-Bold-3" transform="translate(1437.890625 0)"/>
    <use xlink:href="#DejaVuSans-Bold-47" transform="translate(1472.703125 0)"/>
    <use xlink:href="#DejaVuSans-Bold-48" transform="translate(1544.28125 0)"/>
    <use xlink:href="#DejaVuSans-Bold-4f" transform="translate(1612.109375 0)"/>
    <use xlink:href="#DejaVuSans-Bold-4c" transform="translate(1646.390625 0)"/>
    <use xlink:href="#DejaVuSans-Bold-45" transform="translate(1680.671875 0)"/>
    <use xlink:href="#DejaVuSans-Bold-48" transform="translate(1752.25 0)"/>
    <use xlink:href="#DejaVuSans-Bold-55" transform="translate(1820.078125 0)"/>
    <use xlink:href="#DejaVuSans-Bold-44" transform="translate(1869.390625 0)"/>
    <use xlink:href="#DejaVuSans-Bold-57" transform="translate(1936.875 0)"/>
    <use xlink:href="#DejaVuSans-Bold-48" transform="translate(1984.671875 0)"/>
    <use xlink:href="#DejaVuSans-Bold-3" transform="translate(2052.5 0)"/>
    <use xlink:href="#DejaVuSans-Bold-45" transform="translate(2087.3125 0)"/>
    <use xlink:href="#DejaVuSans-Bold-4f" transform="translate(2158.890625 0)"/>
    <use xlink:href="#DejaVuSans-Bold-4c" transform="translate(2193.171875 0)"/>
    <use xlink:href="#DejaVuSans-Bold-51" transform="translate(2227.453125 0)"/>
    <use xlink:href="#DejaVuSans-Bold-47" transform="translate(2298.640625 0)"/>
    <use xlink:href="#DejaVuSans-Bold-3" transform="translate(2370.21875 0)"/>
    <use xlink:href="#DejaVuSans-Bold-56" transform="translate(2405.03125 0)"/>
    <use xlink:href="#DejaVuSans-Bold-53" transform="translate(2464.546875 0)"/>
    <use xlink:href="#DejaVuSans-Bold-52" transform="translate(2536.125 0)"/>
    <use xlink:href="#DejaVuSans-Bold-57" transform="translate(2604.828125 0)"/>
    <use xlink:href="#DejaVuSans-Bold-56" transform="translate(2652.625 0)"/>
   </g>
  </g>
 </g>
 <defs>
  <clipPath id="pe43a4bc8ef">
   <rect x="46.694297" y="50.211094" width="512.24" height="246.504609"/>
  </clipPath>
 </defs>
</svg>
